<svg width="327" height="327" viewBox="0 0 327 327" fill="none" xmlns="http://www.w3.org/2000/svg">
<g clip-path="url(#clip0_470_45)">
<path d="M327 286.206C327 308.642 308.643 326.999 286.207 326.999H53.0314C30.5951 326.999 12.238 308.642 12.238 286.206V53.0307C12.238 30.5943 30.5951 12.2373 53.0314 12.2373H286.207C308.643 12.2373 327 30.5943 327 53.0307V286.206Z" fill="white"/>
<path d="M326.266 285.472C326.266 307.909 307.909 326.266 285.472 326.266H52.2972C29.8608 326.266 11.5038 307.909 11.5038 285.472V52.2973C11.5038 29.8609 29.8608 11.5039 52.2972 11.5039H285.472C307.909 11.5039 326.266 29.8609 326.266 52.2973V285.472Z" fill="#EEF2F6"/>
<path d="M325.491 284.697C325.491 307.134 307.134 325.491 284.697 325.491H51.5628C29.1264 325.491 10.7694 307.134 10.7694 284.697V51.5629C10.7694 29.1266 29.1264 10.7695 51.5628 10.7695H284.738C307.174 10.7695 325.531 29.1266 325.531 51.5629V284.738L325.491 284.697Z" fill="#DEE5ED"/>
<path d="M324.756 283.963C324.756 306.399 306.399 324.756 283.963 324.756H50.7878C28.3514 324.756 9.99438 306.399 9.99438 283.963V50.7876C9.99438 28.3512 28.3514 9.99414 50.7878 9.99414H283.963C306.399 9.99414 324.756 28.3512 324.756 50.7876V283.963Z" fill="#CDD9E4"/>
<path d="M324.022 283.228C324.022 305.665 305.665 324.022 283.229 324.022H50.0535C27.6172 324.022 9.26013 305.665 9.26013 283.228V50.0532C9.26013 27.6168 27.6172 9.25977 50.0535 9.25977H283.229C305.665 9.25977 324.022 27.6168 324.022 50.0532V283.228Z" fill="#BDCCDB"/>
<path d="M323.288 282.494C323.288 304.93 304.931 323.287 282.494 323.287H49.3193C26.8829 323.287 8.52588 304.93 8.52588 282.494V49.3188C8.52588 26.8824 26.8829 8.52539 49.3193 8.52539H282.494C304.931 8.52539 323.288 26.8824 323.288 49.3188V282.494Z" fill="#ACBFD2"/>
<path d="M322.553 281.76C322.553 304.196 304.196 322.553 281.76 322.553H48.5849C26.1485 322.553 7.7915 304.196 7.7915 281.76V48.5844C7.7915 26.1481 26.1485 7.79102 48.5849 7.79102H281.76C304.196 7.79102 322.553 26.1481 322.553 48.5844V281.76Z" fill="#9CB2C8"/>
<path d="M321.778 280.984C321.778 303.421 303.421 321.778 280.985 321.778H47.8507C25.4143 321.778 7.05725 303.421 7.05725 280.984V47.8501C7.05725 25.4137 25.4143 7.05664 47.8507 7.05664H281.026C303.462 7.05664 321.819 25.4137 321.819 47.8501V281.025L321.778 280.984Z" fill="#8BA5BF"/>
<path d="M321.044 280.25C321.044 302.686 302.687 321.043 280.251 321.043H47.0756C24.6393 321.043 6.28223 302.686 6.28223 280.25V47.1157C6.28223 24.6793 24.6393 6.32227 47.0756 6.32227H280.251C302.687 6.32227 321.044 24.6793 321.044 47.1157V280.291V280.25Z" fill="#7B98B6"/>
<path d="M320.31 279.516C320.31 301.953 301.953 320.31 279.516 320.31H46.3413C23.9049 320.31 5.54785 301.953 5.54785 279.516V46.3413C5.54785 23.9049 23.9049 5.54785 46.3413 5.54785H279.516C301.953 5.54785 320.31 23.9049 320.31 46.3413V279.516Z" fill="#6A8CAD"/>
<path d="M319.576 278.782C319.576 301.218 301.219 319.575 278.782 319.575H45.607C23.1706 319.575 4.8136 301.218 4.8136 278.782V45.6069C4.8136 23.1705 23.1706 4.81348 45.607 4.81348H278.782C301.219 4.81348 319.576 23.1705 319.576 45.6069V278.782Z" fill="#5A7FA4"/>
<path d="M318.841 278.048C318.841 300.484 300.484 318.841 278.048 318.841H44.8728C22.4364 318.841 4.07935 300.484 4.07935 278.048V44.8725C4.07935 22.4361 22.4364 4.0791 44.8728 4.0791H278.048C300.484 4.0791 318.841 22.4361 318.841 44.8725V278.048Z" fill="#49729B"/>
<path d="M276.008 318.841H42.8331C19.2137 318.841 0 299.628 0 276.008V42.8331C0 19.2137 19.2137 0 42.8331 0H276.008C299.628 0 318.841 19.2137 318.841 42.8331V276.008C318.841 299.628 299.628 318.841 276.008 318.841ZM42.8331 4.07934C21.4573 4.07934 4.07934 21.4573 4.07934 42.8331V276.008C4.07934 297.384 21.4573 314.762 42.8331 314.762H276.008C297.384 314.762 314.762 297.384 314.762 276.008V42.8331C314.762 21.4573 297.384 4.07934 276.008 4.07934H42.8331Z" fill="white"/>
<path d="M318.841 278.048C318.841 300.484 300.484 318.841 278.048 318.841H44.8728C22.4364 318.841 4.07935 300.484 4.07935 278.048V44.8725C4.07935 22.4361 22.4364 4.0791 44.8728 4.0791H278.048C300.484 4.0791 318.841 22.4361 318.841 44.8725V278.048Z" fill="#F5F9FA"/>
<path d="M236.928 119.24L198.501 157.667L179.858 139.024L161.216 120.382L199.643 81.9543C199.643 81.9543 199.48 81.7504 199.398 81.628C198.378 80.0778 197.399 78.5685 196.461 76.9775L147.223 126.215C136.128 137.311 134.945 154.607 143.715 167.049L70.0422 240.722C70.4502 241.008 70.8989 241.334 71.266 241.701L77.1811 247.616C77.5482 247.984 77.8746 248.391 78.1601 248.84L151.874 175.126C164.275 183.856 181.612 182.714 192.708 171.618L241.946 122.381C240.396 121.442 238.845 120.463 237.295 119.443C237.214 119.362 237.091 119.28 236.969 119.199L236.928 119.24ZM188.588 167.539C178.43 177.696 161.868 177.696 151.711 167.539L151.507 167.335L151.303 167.131C141.145 156.973 141.145 140.411 151.303 130.213L156.157 125.359L174.8 144.001L193.442 162.644L188.588 167.498V167.539Z" fill="#49729B"/>
<path d="M253.327 112.427C243.496 107.042 234.48 100.27 226.526 92.3156C218.571 84.3609 211.799 75.3456 206.415 65.5144C205.354 63.6379 203.396 62.4141 201.315 62.4141C200.581 62.4141 199.847 62.5772 199.194 62.8628C197.97 63.4339 197.114 64.3721 196.706 65.6367C196.175 67.1869 196.379 68.9818 197.236 70.532C197.97 71.8781 198.745 73.2243 199.521 74.5297C200.5 76.2022 201.56 77.834 202.621 79.4249C207.434 86.7677 212.982 93.5802 219.101 99.6992C225.22 105.818 232.033 111.366 239.376 116.221C241.007 117.281 242.598 118.301 244.271 119.321C245.576 120.096 246.922 120.871 248.269 121.605C251.165 123.196 254.755 122.258 255.897 119.81C257.121 117.077 255.979 113.936 253.327 112.427Z" fill="#FF6243"/>
<path d="M68.4921 244.434C67.8394 243.781 66.942 243.414 66.0445 243.414C65.8813 243.414 65.7182 243.414 65.555 243.414C64.0864 243.618 63.0258 244.475 62.5771 245.78C62.1283 247.045 62.4547 248.391 63.4337 249.37L69.4712 255.407C70.3278 256.264 71.2661 256.427 71.9188 256.427C73.4281 256.427 75.1414 255.367 75.3862 253.408C75.5494 252.185 75.1822 251.124 74.4072 250.349L68.4921 244.434Z" fill="#FF6243"/>
</g>
<defs>
<clipPath id="clip0_470_45">
<rect width="327" height="327" fill="white"/>
</clipPath>
</defs>
</svg>
