<svg width="328" height="328" viewBox="0 0 328 328" fill="none" xmlns="http://www.w3.org/2000/svg">
<g clip-path="url(#clip0_470_153)">
<path d="M328 287.082C328 309.587 309.587 328 287.082 328H53.1936C30.6886 328 12.2754 309.587 12.2754 287.082V53.1936C12.2754 30.6886 30.6886 12.2754 53.1936 12.2754H287.082C309.587 12.2754 328 30.6886 328 53.1936V287.082Z" fill="white"/>
<path d="M327.263 286.345C327.263 308.85 308.85 327.264 286.345 327.264H52.457C29.952 327.264 11.5388 308.85 11.5388 286.345V52.4572C11.5388 29.9522 29.952 11.5391 52.457 11.5391H286.345C308.85 11.5391 327.263 29.9522 327.263 52.4572V286.345Z" fill="#EEF2F6"/>
<path d="M326.486 285.568C326.486 308.073 308.073 326.486 285.568 326.486H51.7206C29.2157 326.486 10.8025 308.073 10.8025 285.568V51.7209C10.8025 29.2159 29.2157 10.8027 51.7206 10.8027H285.609C308.114 10.8027 326.527 29.2159 326.527 51.7209V285.609L326.486 285.568Z" fill="#DEE5ED"/>
<path d="M325.75 284.832C325.75 307.337 307.336 325.75 284.831 325.75H50.9841C28.4791 325.75 10.0659 307.337 10.0659 284.832V50.9436C10.0659 28.4386 28.4791 10.0254 50.9841 10.0254H284.872C307.377 10.0254 325.79 28.4386 325.79 50.9436V284.832H325.75Z" fill="#CDD9E4"/>
<path d="M325.013 284.094C325.013 306.599 306.6 325.013 284.095 325.013H50.2065C27.7015 325.013 9.28833 306.599 9.28833 284.094V50.2062C9.28833 27.7013 27.7015 9.28809 50.2065 9.28809H284.095C306.6 9.28809 325.013 27.7013 325.013 50.2062V284.094Z" fill="#BDCCDB"/>
<path d="M324.276 283.358C324.276 305.863 305.863 324.276 283.358 324.276H49.4699C26.9649 324.276 8.55176 305.863 8.55176 283.358V49.4699C8.55176 26.9649 26.9649 8.55176 49.4699 8.55176H283.358C305.863 8.55176 324.276 26.9649 324.276 49.4699V283.358Z" fill="#ACBFD2"/>
<path d="M323.54 282.622C323.54 305.127 305.127 323.54 282.622 323.54H48.7336C26.2286 323.54 7.81543 305.127 7.81543 282.622V48.7336C7.81543 26.2286 26.2286 7.81543 48.7336 7.81543H282.622C305.127 7.81543 323.54 26.2286 323.54 48.7336V282.622Z" fill="#9CB2C8"/>
<path d="M322.803 281.885C322.803 304.39 304.39 322.804 281.885 322.804H47.997C25.492 322.804 7.07886 304.39 7.07886 281.885V47.9973C7.07886 25.4923 25.492 7.0791 47.997 7.0791H281.885C304.39 7.0791 322.803 25.4923 322.803 47.9973V281.885Z" fill="#8BA5BF"/>
<path d="M322.026 281.108C322.026 303.613 303.613 322.026 281.108 322.026H47.2604C24.7555 322.026 6.34229 303.613 6.34229 281.108V47.2199C6.34229 24.7149 24.7555 6.30176 47.2604 6.30176H281.149C303.654 6.30176 322.067 24.7149 322.067 47.2199V281.108H322.026Z" fill="#7B98B6"/>
<path d="M321.289 280.371C321.289 302.876 302.876 321.289 280.371 321.289H46.4831C23.9781 321.289 5.56494 302.876 5.56494 280.371V46.4826C5.56494 23.9776 23.9781 5.56445 46.4831 5.56445H280.371C302.876 5.56445 321.289 23.9776 321.289 46.4826V280.371Z" fill="#6A8CAD"/>
<path d="M320.553 279.634C320.553 302.139 302.14 320.553 279.635 320.553H45.7465C23.2415 320.553 4.82837 302.139 4.82837 279.634V45.7463C4.82837 23.2413 23.2415 4.82812 45.7465 4.82812H279.635C302.14 4.82812 320.553 23.2413 320.553 45.7463V279.634Z" fill="#5A7FA4"/>
<path d="M319.816 278.898C319.816 301.403 301.403 319.816 278.898 319.816H45.01C22.505 319.816 4.0918 301.403 4.0918 278.898V45.01C4.0918 22.505 22.505 4.0918 45.01 4.0918H278.898C301.403 4.0918 319.816 22.505 319.816 45.01V278.898Z" fill="#49729B"/>
<path d="M276.852 319.816H42.9641C19.2725 319.816 0 300.544 0 276.852V42.9641C0 19.2725 19.2725 0 42.9641 0H276.852C300.544 0 319.816 19.2725 319.816 42.9641V276.852C319.816 300.544 300.544 319.816 276.852 319.816ZM42.9641 4.09182C21.523 4.09182 4.09182 21.523 4.09182 42.9641V276.852C4.09182 298.293 21.523 315.725 42.9641 315.725H276.852C298.293 315.725 315.725 298.293 315.725 276.852V42.9641C315.725 21.523 298.293 4.09182 276.852 4.09182H42.9641Z" fill="white"/>
<path d="M319.816 278.898C319.816 301.403 301.403 319.816 278.898 319.816H45.01C22.505 319.816 4.0918 301.403 4.0918 278.898V45.01C4.0918 22.505 22.505 4.0918 45.01 4.0918H278.898C301.403 4.0918 319.816 22.505 319.816 45.01V278.898Z" fill="#F5F9FA"/>
<path d="M284.095 164.574C281.026 160.932 276.893 158.968 272.556 158.968C269.037 158.968 265.6 160.277 262.899 162.61L235.689 186.219L245.468 197.922L255.248 209.624L282.417 186.056C288.678 180.613 289.455 170.957 284.095 164.574Z" fill="#FF6243"/>
<path d="M242.44 200.541L234.584 191.17L232.661 188.879L205.491 212.448C199.231 217.89 198.453 227.547 203.813 233.93C206.882 237.572 211.015 239.536 215.352 239.536C218.871 239.536 222.308 238.267 225.009 235.894L252.22 212.284L242.399 200.582L242.44 200.541Z" fill="#49729B"/>
<path d="M286.836 161.832C283.236 157.576 278.039 155.121 272.515 155.121C268.055 155.121 263.718 156.758 260.321 159.704L233.111 183.355L231.597 184.664L230.124 185.892L202.913 209.542C195.057 216.376 194.116 228.446 201.031 236.712C204.591 240.967 209.828 243.422 215.352 243.422C219.812 243.422 224.15 241.786 227.546 238.84L254.757 215.189L256.189 213.92L257.58 212.734L284.872 189.042C292.729 182.209 293.67 170.138 286.755 161.873L286.836 161.832ZM225.05 235.894C222.349 238.226 218.953 239.535 215.393 239.535C211.015 239.535 206.882 237.612 203.854 233.929C198.494 227.546 199.272 217.89 205.532 212.447L232.702 188.879L234.625 191.17L242.481 200.54L252.301 212.243L225.091 235.853L225.05 235.894ZM255.248 209.624L245.468 197.962L235.689 186.219L262.899 162.609C265.6 160.277 269.037 158.967 272.556 158.967C276.934 158.967 281.067 160.891 284.095 164.573C289.455 170.956 288.678 180.613 282.417 186.055L255.288 209.624H255.248Z" fill="#49729B"/>
<path d="M209.746 172.553C218.748 172.553 227.218 168.584 233.07 161.587C242.399 150.457 242.808 134.417 234.297 122.796H234.338L233.356 121.528L231.883 119.686L231.72 119.891C231.351 119.605 230.983 119.277 230.615 118.991C230.206 118.663 229.796 118.336 229.387 118.009C228.978 117.681 228.61 117.272 228.241 116.945C227.873 116.618 227.546 116.249 227.137 115.922L227.3 115.717L225.336 114.531L223.904 113.671L223.822 113.753C219.485 111.462 214.657 110.193 209.706 110.193C200.704 110.193 192.233 114.162 186.382 121.159C177.053 132.289 176.644 148.329 185.155 159.95H185.114L186.137 161.259L187.61 163.101L187.773 162.896C188.142 163.182 188.51 163.51 188.878 163.796C189.287 164.123 189.697 164.451 190.106 164.778C190.515 165.146 190.883 165.515 191.251 165.883C191.579 166.21 191.947 166.579 192.356 166.906L192.193 167.111L194.116 168.297L195.548 169.156L195.63 169.075C199.967 171.366 204.795 172.634 209.706 172.634L209.746 172.553ZM194.852 163.878C194.566 163.632 194.279 163.346 193.993 163.06C193.543 162.65 193.134 162.2 192.684 161.832C192.233 161.423 191.742 161.055 191.251 160.686C190.924 160.441 190.597 160.154 190.269 159.909L224.6 118.909C224.886 119.154 225.173 119.441 225.459 119.727C225.909 120.136 226.318 120.546 226.768 120.955C227.218 121.364 227.71 121.732 228.201 122.101C228.528 122.346 228.855 122.632 229.183 122.878L194.852 163.878ZM187.732 156.881C180.858 146.774 181.431 133.148 189.369 123.655C194.443 117.6 201.849 114.121 209.706 114.121C213.716 114.121 217.685 115.063 221.285 116.822L190.351 153.771L187.732 156.922V156.881ZM209.746 168.665C205.736 168.665 201.767 167.765 198.167 166.006L231.72 125.906C238.594 136.013 238.021 149.638 230.083 159.131C225.009 165.187 217.603 168.665 209.746 168.665Z" fill="#49729B"/>
<path d="M149.515 110.274V239.535H48.5698V110.274H44.6826V243.422H153.402V110.274H149.515Z" fill="#49729B"/>
<path d="M81.2634 76.3945H76.4351V106.388H81.2634V76.3945Z" fill="#49729B"/>
<path d="M141.781 76.3945H136.953V106.388H141.781V76.3945Z" fill="#49729B"/>
<path d="M101.477 76.3945H96.6077V106.388H101.477V76.3945Z" fill="#49729B"/>
<path d="M121.609 76.3945H116.781V106.388H121.609V76.3945Z" fill="#49729B"/>
<path d="M61.0908 76.3945H56.2625V106.388H61.0908V76.3945Z" fill="#49729B"/>
<path d="M52.3751 76.3945H44.8462V106.388H52.3751V76.3945Z" fill="#49729B"/>
<path d="M72.548 76.3945H65.019V106.388H72.548V76.3945Z" fill="#49729B"/>
<path d="M92.7206 76.3945H85.1917V106.388H92.7206V76.3945Z" fill="#49729B"/>
<path d="M112.893 76.3945H105.364V106.388H112.893V76.3945Z" fill="#49729B"/>
<path d="M133.066 76.3945H125.537V106.388H133.066V76.3945Z" fill="#49729B"/>
<path d="M153.238 76.3945H145.709V106.388H153.238V76.3945Z" fill="#49729B"/>
<path d="M64.1597 213.757H133.925V134.253H64.1597V213.757ZM68.0469 138.181H130.038V209.87H68.0469V138.181Z" fill="#FF6243"/>
<path d="M71.1157 206.801H126.969V141.25H71.1157V206.801ZM75.003 145.137H123.082V202.914H75.003V145.137Z" fill="#FF6243"/>
</g>
<defs>
<clipPath id="clip0_470_153">
<rect width="328" height="328" fill="white"/>
</clipPath>
</defs>
</svg>
