<svg width="334" height="334" viewBox="0 0 334 334" fill="none" xmlns="http://www.w3.org/2000/svg">
<g clip-path="url(#clip0_470_96)">
<path d="M334 292.333C334 315.25 315.25 334 292.333 334H54.1667C31.25 334 12.5 315.25 12.5 292.333V54.1667C12.5 31.25 31.25 12.5 54.1667 12.5H292.333C315.25 12.5 334 31.25 334 54.1667V292.333Z" fill="white"/>
<path d="M333.25 291.583C333.25 314.5 314.5 333.25 291.583 333.25H53.4167C30.5 333.25 11.75 314.5 11.75 291.583V53.4167C11.75 30.5 30.5 11.75 53.4167 11.75H291.583C314.5 11.75 333.25 30.5 333.25 53.4167V291.583Z" fill="#EEF2F6"/>
<path d="M332.458 290.792C332.458 313.708 313.708 332.458 290.792 332.458H52.6667C29.75 332.458 11 313.708 11 290.792V52.6667C11 29.75 29.75 11 52.6667 11H290.833C313.75 11 332.5 29.75 332.5 52.6667V290.833L332.458 290.792Z" fill="#DEE5ED"/>
<path d="M331.708 290.042C331.708 312.959 312.958 331.709 290.042 331.709H51.8749C28.9583 331.709 10.2083 312.959 10.2083 290.042V51.8756C10.2083 28.959 28.9583 10.209 51.8749 10.209H290.042C312.958 10.209 331.708 28.959 331.708 51.8756V290.042Z" fill="#CDD9E4"/>
<path d="M330.958 289.292C330.958 312.209 312.208 330.959 289.292 330.959H51.1249C28.2083 330.959 9.45825 312.209 9.45825 289.292V51.1256C9.45825 28.209 28.2083 9.45898 51.1249 9.45898H289.292C312.208 9.45898 330.958 28.209 330.958 51.1256V289.292Z" fill="#BDCCDB"/>
<path d="M330.208 288.542C330.208 311.459 311.458 330.209 288.542 330.209H50.3749C27.4583 330.209 8.70825 311.459 8.70825 288.542V50.3756C8.70825 27.459 27.4583 8.70898 50.3749 8.70898H288.542C311.458 8.70898 330.208 27.459 330.208 50.3756V288.542Z" fill="#ACBFD2"/>
<path d="M329.458 287.792C329.458 310.709 310.708 329.459 287.792 329.459H49.6249C26.7083 329.459 7.95825 310.709 7.95825 287.792V49.6256C7.95825 26.709 26.7083 7.95898 49.6249 7.95898H287.792C310.708 7.95898 329.458 26.709 329.458 49.6256V287.792Z" fill="#9CB2C8"/>
<path d="M328.708 287.042C328.708 309.959 309.958 328.709 287.042 328.709H48.8749C25.9583 328.709 7.20825 309.959 7.20825 287.042V48.8756C7.20825 25.959 25.9583 7.20898 48.8749 7.20898H287.042C309.958 7.20898 328.708 25.959 328.708 48.8756V287.042Z" fill="#8BA5BF"/>
<path d="M327.917 286.25C327.917 309.167 309.167 327.917 286.25 327.917H48.1249C25.2083 327.917 6.45825 309.167 6.45825 286.25V48.0837C6.45825 25.167 25.2083 6.41699 48.1249 6.41699H286.292C309.208 6.41699 327.958 25.167 327.958 48.0837V286.25H327.917Z" fill="#7B98B6"/>
<path d="M327.167 285.5C327.167 308.417 308.417 327.167 285.5 327.167H47.3333C24.4166 327.167 5.66663 308.417 5.66663 285.5V47.3337C5.66663 24.417 24.4166 5.66699 47.3333 5.66699H285.5C308.417 5.66699 327.167 24.417 327.167 47.3337V285.5Z" fill="#6A8CAD"/>
<path d="M326.417 284.75C326.417 307.667 307.667 326.417 284.75 326.417H46.5833C23.6666 326.417 4.91663 307.667 4.91663 284.75V46.5837C4.91663 23.667 23.6666 4.91699 46.5833 4.91699H284.75C307.667 4.91699 326.417 23.667 326.417 46.5837V284.75Z" fill="#5A7FA4"/>
<path d="M325.667 284C325.667 306.917 306.917 325.667 284 325.667H45.8333C22.9166 325.667 4.16663 306.917 4.16663 284V45.8337C4.16663 22.917 22.9166 4.16699 45.8333 4.16699H284C306.917 4.16699 325.667 22.917 325.667 45.8337V284Z" fill="#49729B"/>
<path d="M281.917 325.667H43.75C19.625 325.667 0 306.042 0 281.917V43.75C0 19.625 19.625 0 43.75 0H281.917C306.042 0 325.667 19.625 325.667 43.75V281.917C325.667 306.042 306.042 325.667 281.917 325.667ZM43.75 4.16667C21.9167 4.16667 4.16667 21.9167 4.16667 43.75V281.917C4.16667 303.75 21.9167 321.5 43.75 321.5H281.917C303.75 321.5 321.5 303.75 321.5 281.917V43.75C321.5 21.9167 303.75 4.16667 281.917 4.16667H43.75Z" fill="white"/>
<path d="M325.667 284C325.667 306.917 306.917 325.667 284 325.667H45.8333C22.9166 325.667 4.16663 306.917 4.16663 284V45.8337C4.16663 22.917 22.9166 4.16699 45.8333 4.16699H284C306.917 4.16699 325.667 22.917 325.667 45.8337V284Z" fill="#F5F9FA"/>
<path d="M242.708 133.583L242.5 132.541C237.375 107.708 218 88.333 193.167 83.208L192.125 82.9997L162.875 112.25L133.583 82.958L132.542 83.1663C107.75 88.333 88.375 107.708 83.2083 132.5L83 133.541L112.292 162.833L83 192.125L83.2083 193.166C88.375 217.958 107.75 237.333 132.542 242.5L133.583 242.708L162.875 213.416L192.125 242.666L193.167 242.458C218 237.333 237.375 217.958 242.5 193.125L242.708 192.083L213.458 162.833L242.708 133.583ZM193.375 238.375L87.25 132.25C92.3333 109.833 109.833 92.333 132.25 87.2497L238.375 193.375C233.292 215.833 215.792 233.333 193.375 238.375ZM87.25 193.416L115.042 165.625L160.042 210.625L132.25 238.416C109.833 233.333 92.3333 215.833 87.25 193.416ZM238.375 132.291L210.625 160.041L165.625 115.041L193.375 87.2913C215.792 92.3747 233.292 109.875 238.375 132.291Z" fill="#49729B"/>
<path d="M199.708 173.333C203.542 169.5 203.542 163.25 199.708 159.416L172.875 132.583C169.167 128.875 162.667 128.875 158.958 132.583L132.125 159.416C128.292 163.25 128.292 169.5 132.125 173.333L158.958 200.166C160.833 202.041 163.292 203.041 165.917 203.041C168.542 203.041 171.042 202 172.875 200.166L199.708 173.333ZM161.75 197.333L134.917 170.5C132.625 168.208 132.625 164.458 134.917 162.166L161.75 135.333C162.875 134.208 164.333 133.625 165.917 133.625C167.5 133.625 168.958 134.25 170.083 135.333L196.917 162.166C199.208 164.458 199.208 168.208 196.917 170.5L170.083 197.333C167.875 199.541 164 199.541 161.75 197.333Z" fill="#FF6243"/>
<path d="M141.167 132.625C144.833 132.625 147.833 129.542 147.833 125.75C147.833 121.958 144.833 118.875 141.167 118.875C140.083 118.875 139.167 119.75 139.167 120.833C139.167 121.917 140.042 122.833 141.167 122.833C142.667 122.833 143.875 124.125 143.875 125.708C143.875 127.292 142.667 128.583 141.167 128.583C139.667 128.583 138.5 127.292 138.5 125.708C138.5 124.625 137.625 123.708 136.5 123.708C135.375 123.708 134.5 124.583 134.5 125.708C134.5 129.5 137.5 132.583 141.167 132.583V132.625Z" fill="#FF6243"/>
<path d="M125.75 117.208C129.417 117.208 132.417 114.125 132.417 110.333C132.417 106.541 129.417 103.458 125.75 103.458C124.667 103.458 123.75 104.333 123.75 105.458C123.75 106.583 124.625 107.458 125.75 107.458C127.25 107.458 128.417 108.75 128.417 110.333C128.417 111.916 127.208 113.208 125.75 113.208C124.292 113.208 123.083 111.916 123.083 110.333C123.083 109.25 122.208 108.333 121.083 108.333C119.958 108.333 119.083 109.208 119.083 110.333C119.083 114.125 122.083 117.208 125.75 117.208Z" fill="#FF6243"/>
<path d="M129.5 144.083C129.5 140.291 126.542 137.208 122.833 137.208C121.75 137.208 120.833 138.083 120.833 139.208C120.833 140.333 121.708 141.208 122.833 141.208C124.333 141.208 125.5 142.5 125.5 144.083C125.5 145.666 124.292 146.958 122.833 146.958C121.375 146.958 120.167 145.666 120.167 144.083C120.167 143 119.292 142.083 118.167 142.083C117.042 142.083 116.167 142.958 116.167 144.083C116.167 147.875 119.167 150.958 122.833 150.958C126.5 150.958 129.5 147.875 129.5 144.083Z" fill="#FF6243"/>
<path d="M107.458 121.833C106.375 121.833 105.458 122.708 105.458 123.833C105.458 124.958 106.333 125.833 107.458 125.833C108.958 125.833 110.125 127.125 110.125 128.708C110.125 130.291 108.917 131.583 107.458 131.583C106 131.583 104.792 130.291 104.792 128.708C104.792 127.625 103.917 126.708 102.792 126.708C101.667 126.708 100.792 127.583 100.792 128.708C100.792 132.5 103.792 135.583 107.458 135.583C111.125 135.583 114.125 132.5 114.125 128.708C114.125 124.916 111.125 121.833 107.458 121.833Z" fill="#FF6243"/>
<path d="M217.25 195C216.167 195 215.25 195.875 215.25 197C215.25 198.125 216.125 199 217.25 199C218.75 199 219.917 200.292 219.917 201.875C219.917 203.458 218.708 204.75 217.25 204.75C215.792 204.75 214.583 203.458 214.583 201.875C214.583 200.792 213.708 199.875 212.583 199.875C211.458 199.875 210.583 200.75 210.583 201.875C210.583 205.667 213.583 208.75 217.25 208.75C220.917 208.75 223.917 205.667 223.917 201.875C223.917 198.083 220.917 195 217.25 195Z" fill="#FF6243"/>
<path d="M201.833 179.583C200.75 179.583 199.833 180.458 199.833 181.583C199.833 182.708 200.708 183.583 201.833 183.583C203.333 183.583 204.5 184.875 204.5 186.458C204.5 188.041 203.292 189.333 201.833 189.333C200.375 189.333 199.125 188.041 199.125 186.458C199.125 185.375 198.25 184.458 197.125 184.458C196 184.458 195.125 185.333 195.125 186.458C195.125 190.25 198.125 193.333 201.792 193.333C205.458 193.333 208.458 190.25 208.458 186.458C208.458 182.666 205.5 179.583 201.792 179.583H201.833Z" fill="#FF6243"/>
<path d="M198.958 213.333C197.875 213.333 196.958 214.208 196.958 215.333C196.958 216.458 197.833 217.333 198.958 217.333C200.458 217.333 201.625 218.625 201.625 220.208C201.625 221.791 200.417 223.083 198.958 223.083C197.5 223.083 196.25 221.791 196.25 220.208C196.25 219.125 195.375 218.208 194.25 218.208C193.125 218.208 192.25 219.083 192.25 220.208C192.25 224 195.25 227.083 198.917 227.083C202.583 227.083 205.583 224 205.583 220.208C205.583 216.416 202.583 213.333 198.917 213.333H198.958Z" fill="#FF6243"/>
<path d="M183.5 197.916C182.417 197.916 181.5 198.791 181.5 199.916C181.5 201.041 182.375 201.916 183.5 201.916C185 201.916 186.208 203.208 186.208 204.791C186.208 206.374 185 207.666 183.5 207.666C182 207.666 180.833 206.374 180.833 204.791C180.833 203.708 179.958 202.791 178.833 202.791C177.708 202.791 176.833 203.666 176.833 204.791C176.833 208.583 179.833 211.666 183.5 211.666C187.167 211.666 190.167 208.583 190.167 204.791C190.167 200.999 187.167 197.916 183.5 197.916Z" fill="#FF6243"/>
</g>
<defs>
<clipPath id="clip0_470_96">
<rect width="334" height="334" fill="white"/>
</clipPath>
</defs>
</svg>
