<svg width="326" height="326" viewBox="0 0 326 326" fill="none" xmlns="http://www.w3.org/2000/svg">
<g clip-path="url(#clip0_470_220)">
<path d="M326 285.331C326 307.699 307.699 326 285.331 326H52.8693C30.5016 326 12.2007 307.699 12.2007 285.331V52.8689C12.2007 30.5011 30.5016 12.2002 52.8693 12.2002H285.331C307.699 12.2002 326 30.5011 326 52.8689V285.331Z" fill="white"/>
<path d="M325.268 284.599C325.268 306.966 306.967 325.267 284.599 325.267H52.1372C29.7694 325.267 11.4685 306.966 11.4685 284.599V52.1364C11.4685 29.7687 29.7694 11.4678 52.1372 11.4678H284.599C306.967 11.4678 325.268 29.7687 325.268 52.1364V284.599Z" fill="#EEF2F6"/>
<path d="M324.495 283.826C324.495 306.194 306.194 324.495 283.827 324.495H51.4052C29.0375 324.495 10.7366 306.194 10.7366 283.826V51.405C10.7366 29.0372 29.0375 10.7363 51.4052 10.7363H283.867C306.235 10.7363 324.536 29.0372 324.536 51.405V283.867L324.495 283.826Z" fill="#DEE5ED"/>
<path d="M323.763 283.094C323.763 305.461 305.462 323.762 283.095 323.762H50.6325C28.2648 323.762 9.96387 305.461 9.96387 283.094V50.6316C9.96387 28.2638 28.2648 9.96289 50.6325 9.96289H283.095C305.462 9.96289 323.763 28.2638 323.763 50.6316V283.094Z" fill="#CDD9E4"/>
<path d="M323.031 282.362C323.031 304.73 304.73 323.031 282.363 323.031H49.9006C27.5328 323.031 9.23193 304.73 9.23193 282.362V49.9001C9.23193 27.5323 27.5328 9.23145 49.9006 9.23145H282.363C304.73 9.23145 323.031 27.5323 323.031 49.9001V282.362Z" fill="#BDCCDB"/>
<path d="M322.299 281.63C322.299 303.998 303.998 322.298 281.631 322.298H49.1684C26.8007 322.298 8.49976 303.998 8.49976 281.63V49.1677C8.49976 26.7999 26.8007 8.49902 49.1684 8.49902H281.631C303.998 8.49902 322.299 26.7999 322.299 49.1677V281.63Z" fill="#ACBFD2"/>
<path d="M321.567 280.898C321.567 303.266 303.266 321.567 280.899 321.567H48.4365C26.0687 321.567 7.76782 303.266 7.76782 280.898V48.4362C7.76782 26.0685 26.0687 7.76758 48.4365 7.76758H280.899C303.266 7.76758 321.567 26.0685 321.567 48.4362V280.898Z" fill="#9CB2C8"/>
<path d="M320.794 280.125C320.794 302.493 302.493 320.794 280.126 320.794H47.7043C25.3365 320.794 7.03564 302.493 7.03564 280.125V47.7038C7.03564 25.3361 25.3365 7.03516 47.7043 7.03516H280.166C302.534 7.03516 320.835 25.3361 320.835 47.7038V280.166L320.794 280.125Z" fill="#8BA5BF"/>
<path d="M320.062 279.393C320.062 301.761 301.761 320.062 279.394 320.062H46.9316C24.5638 320.062 6.26294 301.761 6.26294 279.393V46.9314C6.26294 24.5636 24.5638 6.2627 46.9316 6.2627H279.394C301.761 6.2627 320.062 24.5636 320.062 46.9314V279.393Z" fill="#7B98B6"/>
<path d="M319.33 278.661C319.33 301.029 301.029 319.33 278.662 319.33H46.1997C23.8319 319.33 5.53101 301.029 5.53101 278.661V46.1989C5.53101 23.8312 23.8319 5.53027 46.1997 5.53027H278.662C301.029 5.53027 319.33 23.8312 319.33 46.1989V278.661Z" fill="#6A8CAD"/>
<path d="M318.598 277.93C318.598 300.297 300.297 318.598 277.93 318.598H45.4675C23.0997 318.598 4.79883 300.297 4.79883 277.93V45.4675C4.79883 23.0997 23.0997 4.79883 45.4675 4.79883H277.93C300.297 4.79883 318.598 23.0997 318.598 45.4675V277.93Z" fill="#5A7FA4"/>
<path d="M317.866 277.197C317.866 299.565 299.565 317.866 277.198 317.866H44.7356C22.3678 317.866 4.06689 299.565 4.06689 277.197V44.7351C4.06689 22.3673 22.3678 4.06641 44.7356 4.06641H277.198C299.565 4.06641 317.866 22.3673 317.866 44.7351V277.197Z" fill="#49729B"/>
<path d="M275.164 317.866H42.7021C19.1549 317.866 0 298.711 0 275.164V42.7021C0 19.1549 19.1549 0 42.7021 0H275.164C298.711 0 317.866 19.1549 317.866 42.7021V275.164C317.866 298.711 298.711 317.866 275.164 317.866ZM42.7021 4.06687C21.3917 4.06687 4.06687 21.3917 4.06687 42.7021V275.164C4.06687 296.475 21.3917 313.799 42.7021 313.799H275.164C296.475 313.799 313.799 296.475 313.799 275.164V42.7021C313.799 21.3917 296.475 4.06687 275.164 4.06687H42.7021Z" fill="white"/>
<path d="M317.866 277.197C317.866 299.565 299.565 317.866 277.198 317.866H44.7356C22.3678 317.866 4.06689 299.565 4.06689 277.197V44.7351C4.06689 22.3673 22.3678 4.06641 44.7356 4.06641H277.198C299.565 4.06641 317.866 22.3673 317.866 44.7351V277.197Z" fill="#F5F9FA"/>
<path d="M154.826 163.04C151.694 159.909 146.61 159.95 143.479 163.04C140.347 166.172 140.347 171.255 143.479 174.387C146.61 177.518 151.735 177.518 154.866 174.387C157.998 171.255 157.998 166.131 154.866 163L154.826 163.04Z" fill="#FF6243"/>
<path d="M194.762 94.6764C191.793 94.6764 188.987 95.8558 186.873 97.9299L158.933 125.869C156.818 127.984 155.68 130.79 155.68 133.759C155.68 136.728 156.818 139.534 158.933 141.649L177.153 159.828C179.268 161.942 182.074 163.081 185.042 163.081C188.011 163.081 190.817 161.902 192.932 159.828L220.872 131.888C222.986 129.773 224.125 126.967 224.125 123.999C224.125 121.03 222.946 118.224 220.872 116.109L202.693 97.8892C200.578 95.7745 197.772 94.6357 194.803 94.6357L194.762 94.6764ZM222.173 123.999C222.173 126.439 221.197 128.797 219.489 130.505L191.549 158.445C188.052 161.902 181.992 161.902 178.535 158.445L160.357 140.225C158.608 138.477 157.672 136.158 157.672 133.718C157.672 131.278 158.649 128.96 160.357 127.211L188.296 99.272C190.045 97.5232 192.363 96.5878 194.803 96.5878C197.243 96.5878 199.561 97.5639 201.31 99.272L219.489 117.492C221.238 119.24 222.173 121.558 222.173 123.999Z" fill="#FF6243"/>
<path d="M194.396 84.3877L122.047 156.737C120.664 158.12 119.891 166.823 119.403 172.598C118.549 182.44 117.898 188.581 115.621 190.818L93.6599 212.779L99.3942 218.513L105.128 224.247L127.09 202.286C129.367 200.009 135.508 199.358 145.35 198.504C151.125 198.016 159.787 197.243 161.211 195.861L233.56 123.511L213.998 103.949L194.437 84.3877H194.396ZM154.866 174.469C151.735 177.6 146.611 177.6 143.479 174.469C140.348 171.337 140.388 166.254 143.479 163.122C146.57 159.991 151.694 159.991 154.826 163.122C157.957 166.254 157.957 171.337 154.826 174.509L154.866 174.469ZM224.125 123.999C224.125 126.968 222.946 129.774 220.871 131.889L192.932 159.828C190.817 161.943 188.011 163.082 185.042 163.082C182.074 163.082 179.267 161.902 177.153 159.828L158.974 141.649C156.859 139.534 155.72 136.728 155.72 133.759C155.72 130.791 156.859 127.985 158.974 125.87L186.913 97.9304C189.028 95.8156 191.834 94.6769 194.803 94.6769C197.772 94.6769 200.578 95.8563 202.693 97.9304L220.871 116.15C222.986 118.265 224.166 121.03 224.166 124.04L224.125 123.999Z" fill="#49729B"/>
<path d="M237.627 91.057L226.809 80.2391C223.027 76.4569 217.984 74.3828 212.656 74.3828C207.329 74.3828 202.286 76.4569 198.504 80.2391L197.08 81.6625L236.204 120.786L237.627 119.362C241.409 115.58 243.483 110.578 243.483 105.21C243.483 99.8414 241.409 94.8391 237.627 91.057Z" fill="#FF6243"/>
<path d="M194.762 96.5879C192.281 96.5879 190.004 97.5639 188.255 99.272L160.316 127.211C158.567 128.96 157.632 131.278 157.632 133.718C157.632 136.159 158.608 138.477 160.316 140.225L178.535 158.445C182.033 161.902 188.092 161.902 191.549 158.445L219.489 130.506C221.237 128.757 222.173 126.439 222.173 123.999C222.173 121.558 221.197 119.24 219.489 117.492L201.31 99.272C199.561 97.5233 197.243 96.5879 194.803 96.5879H194.762ZM221.197 123.999C221.197 126.195 220.343 128.269 218.757 129.814L216.235 132.336L190.817 157.713C189.272 159.258 187.198 160.112 185.002 160.112C182.806 160.112 180.731 159.258 179.186 157.713L160.966 139.493C159.421 137.948 158.567 135.874 158.567 133.678C158.567 131.482 159.421 129.408 161.007 127.862L188.946 99.9227C190.492 98.3773 192.566 97.5233 194.762 97.5233C196.958 97.5233 199.032 98.3773 200.578 99.9227L218.757 118.142C220.302 119.688 221.197 121.762 221.197 123.958V123.999Z" fill="#FF6243"/>
<path d="M76.6197 229.819C75.1557 231.283 74.3423 233.235 74.3423 235.309C74.3423 237.383 75.1557 239.335 76.6197 240.799L77.1077 241.287C80.0359 244.215 85.1601 244.215 88.0476 241.287L102.363 226.972L90.9351 215.544L76.6604 229.859L76.6197 229.819Z" fill="#49729B"/>
<path d="M165.725 139.087L167.148 140.51L172.476 135.182L177.071 139.778L171.744 145.106L173.249 146.61L178.576 141.283L183.172 145.919L177.844 151.206L179.308 152.67L186.059 145.919L172.476 132.295L165.725 139.087Z" fill="#49729B"/>
<path d="M187.645 129.205L182.318 134.532L177.722 129.937L183.05 124.609L181.626 123.186L174.875 129.937L188.459 143.52L195.942 136.037L188.377 128.513L187.645 129.245V129.205ZM193.054 136.037L188.459 140.632L183.863 136.037L188.459 131.441L193.054 136.037Z" fill="#49729B"/>
<path d="M199.683 117.206L194.355 122.534L189.76 117.938L195.087 112.611L193.664 111.188L186.913 117.938L200.496 131.522L207.979 124.039L200.415 116.515L199.683 117.247V117.206ZM205.051 123.998L200.456 128.594L195.86 123.998L200.456 119.403L205.051 123.998Z" fill="#49729B"/>
<path d="M197.456 130.602L195.531 132.53L197.46 134.455L199.384 132.526L197.456 130.602Z" fill="#49729B"/>
<path d="M205.987 117.614L211.192 112.449L210.176 111.432L209.2 112.449L205.987 115.621L204.97 114.604L202.815 112.408L201.757 111.392L199.602 109.196L198.585 108.179L202.245 104.519L201.269 103.502L196.592 108.179L205.987 117.614Z" fill="#49729B"/>
</g>
<defs>
<clipPath id="clip0_470_220">
<rect width="326" height="326" fill="white"/>
</clipPath>
</defs>
</svg>
