<svg width="321" height="321" viewBox="0 0 321 321" fill="none" xmlns="http://www.w3.org/2000/svg">
<g clip-path="url(#clip0_470_274)">
<path d="M321 280.955C321 302.98 302.98 321 280.955 321H52.0583C30.0336 321 12.0134 302.98 12.0134 280.955V52.0586C12.0134 30.0339 30.0336 12.0137 52.0583 12.0137H280.955C302.98 12.0137 321 30.0339 321 52.0586V280.955Z" fill="white"/>
<path d="M320.279 280.235C320.279 302.259 302.259 320.28 280.234 320.28H51.3374C29.3127 320.28 11.2925 302.259 11.2925 280.235V51.3379C11.2925 29.3132 29.3127 11.293 51.3374 11.293H280.234C302.259 11.293 320.279 29.3132 320.279 51.3379V280.235Z" fill="#EEF2F6"/>
<path d="M319.518 279.474C319.518 301.499 301.498 319.519 279.473 319.519H50.6167C28.592 319.519 10.5718 301.499 10.5718 279.474V50.6172C10.5718 28.5925 28.592 10.5723 50.6167 10.5723H279.513C301.538 10.5723 319.558 28.5925 319.558 50.6172V279.514L319.518 279.474Z" fill="#DEE5ED"/>
<path d="M318.797 278.753C318.797 300.778 300.777 318.798 278.752 318.798H49.8557C27.831 318.798 9.81079 300.778 9.81079 278.753V49.8564C9.81079 27.8317 27.831 9.81152 49.8557 9.81152H278.752C300.777 9.81152 318.797 27.8317 318.797 49.8564V278.753Z" fill="#CDD9E4"/>
<path d="M318.077 278.032C318.077 300.057 300.056 318.077 278.032 318.077H49.135C27.1103 318.077 9.09009 300.057 9.09009 278.032V49.1357C9.09009 27.111 27.1103 9.09082 49.135 9.09082H278.032C300.056 9.09082 318.077 27.111 318.077 49.1357V278.032Z" fill="#BDCCDB"/>
<path d="M317.356 277.312C317.356 299.336 299.336 317.357 277.311 317.357H48.4143C26.3896 317.357 8.36938 299.336 8.36938 277.312V48.415C8.36938 26.3903 26.3896 8.37012 48.4143 8.37012H277.311C299.336 8.37012 317.356 26.3903 317.356 48.415V277.312Z" fill="#ACBFD2"/>
<path d="M316.635 276.591C316.635 298.616 298.615 316.636 276.59 316.636H47.6933C25.6686 316.636 7.64844 298.616 7.64844 276.591V47.6943C7.64844 25.6696 25.6686 7.64941 47.6933 7.64941H276.59C298.615 7.64941 316.635 25.6696 316.635 47.6943V276.591Z" fill="#9CB2C8"/>
<path d="M315.874 275.829C315.874 297.854 297.854 315.874 275.829 315.874H46.9726C24.9479 315.874 6.92773 297.854 6.92773 275.829V46.9726C6.92773 24.9479 24.9479 6.92773 46.9726 6.92773H275.869C297.894 6.92773 315.914 24.9479 315.914 46.9726V275.869L315.874 275.829Z" fill="#8BA5BF"/>
<path d="M315.153 275.109C315.153 297.133 297.133 315.154 275.108 315.154H46.2117C24.187 315.154 6.16675 297.133 6.16675 275.109V46.2119C6.16675 24.1872 24.187 6.16699 46.2117 6.16699H275.108C297.133 6.16699 315.153 24.1872 315.153 46.2119V275.109Z" fill="#7B98B6"/>
<path d="M314.433 274.388C314.433 296.413 296.412 314.433 274.388 314.433H45.491C23.4663 314.433 5.44604 296.413 5.44604 274.388V45.4912C5.44604 23.4665 23.4663 5.44629 45.491 5.44629H274.388C296.412 5.44629 314.433 23.4665 314.433 45.4912V274.388Z" fill="#6A8CAD"/>
<path d="M313.712 273.667C313.712 295.692 295.691 313.712 273.667 313.712H44.77C22.7453 313.712 4.7251 295.692 4.7251 273.667V44.7705C4.7251 22.7458 22.7453 4.72559 44.77 4.72559H273.667C295.691 4.72559 313.712 22.7458 313.712 44.7705V273.667Z" fill="#5A7FA4"/>
<path d="M312.991 272.947C312.991 294.971 294.971 312.991 272.946 312.991H44.0493C22.0246 312.991 4.00439 294.971 4.00439 272.947V44.0498C4.00439 22.0251 22.0246 4.00488 44.0493 4.00488H272.946C294.971 4.00488 312.991 22.0251 312.991 44.0498V272.947Z" fill="#49729B"/>
<path d="M270.944 312.991H42.0471C18.8612 312.991 0 294.13 0 270.944V42.0471C0 18.8612 18.8612 0 42.0471 0H270.944C294.13 0 312.991 18.8612 312.991 42.0471V270.944C312.991 294.13 294.13 312.991 270.944 312.991ZM42.0471 4.00449C21.0636 4.00449 4.00449 21.0636 4.00449 42.0471V270.944C4.00449 291.927 21.0636 308.986 42.0471 308.986H270.944C291.927 308.986 308.986 291.927 308.986 270.944V42.0471C308.986 21.0636 291.927 4.00449 270.944 4.00449H42.0471Z" fill="white"/>
<path d="M312.991 272.947C312.991 294.971 294.971 312.991 272.946 312.991H44.0493C22.0246 312.991 4.00439 294.971 4.00439 272.947V44.0498C4.00439 22.0251 22.0246 4.00488 44.0493 4.00488H272.946C294.971 4.00488 312.991 22.0251 312.991 44.0498V272.947Z" fill="#F5F9FA"/>
<path d="M143.881 260.532L118.653 249.079L125.301 267.3L143.881 260.532Z" fill="#49729B"/>
<path d="M103.156 206.591L150.569 102.194L131.668 50.4161C130.426 46.9722 127.183 44.8499 123.739 44.8499C122.778 44.8499 121.817 45.01 120.856 45.3704H120.695C116.331 47.0123 114.048 51.8577 115.65 56.2627L136.273 112.766L132.469 114.168L108.562 48.6942C107.32 45.2904 104.077 43.1279 100.633 43.1279C99.6719 43.1279 98.7108 43.2881 97.7497 43.6485H97.5896C93.2247 45.2904 90.9421 50.1358 92.5439 54.5407L116.451 120.014L112.646 121.416L92.0233 64.9124C90.7819 61.5085 87.5383 59.3461 84.0944 59.3461C83.1333 59.3461 82.1723 59.5063 81.2112 59.8667H81.051C76.6861 61.5085 74.4036 66.354 76.0053 70.7589L96.6285 127.262L92.8242 128.664L75.4447 81.0905C74.2033 77.6867 70.9597 75.5243 67.5158 75.5243C66.5548 75.5243 65.5937 75.6844 64.6326 76.0448H64.4724C60.1075 77.6867 57.825 82.5321 59.4268 86.9371L76.8062 134.51L82.9331 151.249L103.156 206.631V206.591Z" fill="#49729B"/>
<path d="M200.785 239.748L194.698 223.009L193.617 220.126L181.524 246.796L200.785 239.748Z" fill="#49729B"/>
<path d="M247.798 70.7991C242.712 68.5165 236.385 70.9192 234.103 75.9649L209.996 128.984L209.795 128.904L237.827 67.1951C240.19 61.9892 237.867 55.8623 232.541 53.4196C231.179 52.8189 229.738 52.4986 228.256 52.4986C224.212 52.4986 220.527 54.9013 218.846 58.5854L190.814 120.295L190.614 120.215L214.721 67.155C217.084 61.9492 214.761 55.8223 209.435 53.3796C204.349 51.097 198.022 53.4997 195.74 58.5053L171.673 111.525L171.472 111.445L191.615 67.0749C193.978 61.8691 191.655 55.7422 186.329 53.2995C181.243 51.0169 174.916 53.4196 172.634 58.4252L145.123 119.013L92.4238 235.023L169.07 269.822L221.769 153.812L229.137 137.594L253.244 84.5746C255.607 79.3687 253.284 73.2018 247.958 70.7991H247.798ZM105.238 208.794C104.718 207.873 105.078 206.712 105.959 206.191L172.954 168.949C178.12 166.987 180.603 161.501 178.761 156.575C176.838 151.45 171.352 148.967 166.467 150.809L128.104 165.465C127.143 165.826 126.022 165.345 125.661 164.384C125.301 163.383 125.781 162.302 126.742 161.941L165.105 147.285C171.993 144.682 179.682 148.206 182.245 155.054C184.928 162.142 181.404 169.83 174.556 172.393L107.801 209.515C107.521 209.675 107.2 209.755 106.88 209.755C106.199 209.755 105.559 209.395 105.198 208.794H105.238ZM134.151 169.59C134.151 169.59 133.75 169.71 133.55 169.71C132.869 169.71 132.228 169.31 131.948 168.629C131.628 167.748 132.068 166.747 132.949 166.426L170.912 152.17C171.793 151.85 172.794 152.29 173.114 153.171C173.435 154.052 172.994 155.014 172.113 155.374L134.151 169.63V169.59ZM201.746 57.5442C202.627 57.9447 202.988 58.9458 202.627 59.7867L183.926 102.074C183.646 102.715 183.005 103.075 182.365 103.075C182.124 103.075 181.884 103.035 181.684 102.915C180.843 102.515 180.443 101.514 180.803 100.673L199.504 58.3852C199.904 57.5042 200.905 57.1438 201.746 57.5042V57.5442ZM204.469 101.714L223.17 59.4263C223.571 58.5854 224.572 58.185 225.413 58.5454C226.294 58.9458 226.654 59.9469 226.294 60.7879L207.593 103.075C207.313 103.716 206.672 104.076 206.031 104.076C205.791 104.076 205.551 104.036 205.35 103.916C204.51 103.516 204.109 102.515 204.469 101.674V101.714ZM238.788 78.2475C239.629 78.6479 240.029 79.649 239.669 80.49L220.968 122.777C220.688 123.418 220.047 123.779 219.406 123.779C219.166 123.779 218.926 123.738 218.725 123.618C217.885 123.218 217.484 122.217 217.844 121.376L236.545 79.0884C236.946 78.2074 237.947 77.847 238.788 78.2074V78.2475ZM178.681 57.1438C179.521 57.5442 179.922 58.5454 179.522 59.3863L147.846 129.185C147.566 129.825 146.925 130.186 146.284 130.186C146.044 130.186 145.804 130.146 145.563 130.026C144.722 129.625 144.322 128.624 144.722 127.783L176.398 57.9847C176.798 57.1037 177.8 56.7433 178.641 57.1438H178.681Z" fill="#49729B"/>
</g>
<defs>
<clipPath id="clip0_470_274">
<rect width="321" height="321" fill="white"/>
</clipPath>
</defs>
</svg>
