<svg width="321" height="321" viewBox="0 0 321 321" fill="none" xmlns="http://www.w3.org/2000/svg">
<g clip-path="url(#clip0_470_67)">
<path d="M321 280.955C321 302.98 302.98 321 280.955 321H52.0585C30.0338 321 12.0135 302.98 12.0135 280.955V52.0586C12.0135 30.0339 30.0338 12.0137 52.0585 12.0137H280.955C302.98 12.0137 321 30.0339 321 52.0586V280.955Z" fill="white"/>
<path d="M320.279 280.235C320.279 302.259 302.259 320.28 280.234 320.28H51.3376C29.3129 320.28 11.2927 302.259 11.2927 280.235V51.3379C11.2927 29.3132 29.3129 11.293 51.3376 11.293H280.234C302.259 11.293 320.279 29.3132 320.279 51.3379V280.235Z" fill="#EEF2F6"/>
<path d="M319.518 279.474C319.518 301.499 301.498 319.519 279.473 319.519H50.6168C28.5921 319.519 10.5719 301.499 10.5719 279.474V50.6172C10.5719 28.5925 28.5921 10.5723 50.6168 10.5723H279.514C301.538 10.5723 319.558 28.5925 319.558 50.6172V279.514L319.518 279.474Z" fill="#DEE5ED"/>
<path d="M318.798 278.753C318.798 300.778 300.777 318.798 278.753 318.798H49.896C27.8713 318.798 9.85107 300.778 9.85107 278.753V49.8564C9.85107 27.8317 27.8713 9.81152 49.896 9.81152H278.793C300.817 9.81152 318.838 27.8317 318.838 49.8564V278.753H318.798Z" fill="#CDD9E4"/>
<path d="M318.077 278.032C318.077 300.057 300.057 318.077 278.032 318.077H49.1351C27.1104 318.077 9.09021 300.057 9.09021 278.032V49.1357C9.09021 27.111 27.1104 9.09082 49.1351 9.09082H278.032C300.057 9.09082 318.077 27.111 318.077 49.1357V278.032Z" fill="#BDCCDB"/>
<path d="M317.356 277.312C317.356 299.336 299.336 317.357 277.311 317.357H48.4143C26.3896 317.357 8.36938 299.336 8.36938 277.312V48.415C8.36938 26.3903 26.3896 8.37012 48.4143 8.37012H277.311C299.336 8.37012 317.356 26.3903 317.356 48.415V277.312Z" fill="#ACBFD2"/>
<path d="M316.635 276.591C316.635 298.616 298.615 316.636 276.59 316.636H47.6935C25.6688 316.636 7.64856 298.616 7.64856 276.591V47.6943C7.64856 25.6696 25.6688 7.64941 47.6935 7.64941H276.59C298.615 7.64941 316.635 25.6696 316.635 47.6943V276.591Z" fill="#9CB2C8"/>
<path d="M315.914 275.829C315.914 297.854 297.894 315.874 275.869 315.874H46.9726C24.9479 315.874 6.92773 297.854 6.92773 275.829V46.9726C6.92773 24.9479 24.9479 6.92773 46.9726 6.92773H275.869C297.894 6.92773 315.914 24.9479 315.914 46.9726V275.869V275.829Z" fill="#8BA5BF"/>
<path d="M315.153 275.109C315.153 297.133 297.133 315.153 275.109 315.153H46.2519C24.2272 315.153 6.20703 297.133 6.20703 275.109V46.2519C6.20703 24.2272 24.2272 6.20703 46.2519 6.20703H275.149C297.173 6.20703 315.194 24.2272 315.194 46.2519V275.149L315.153 275.109Z" fill="#7B98B6"/>
<path d="M314.433 274.388C314.433 296.413 296.412 314.433 274.388 314.433H45.4911C23.4664 314.433 5.44617 296.413 5.44617 274.388V45.4912C5.44617 23.4665 23.4664 5.44629 45.4911 5.44629H274.388C296.412 5.44629 314.433 23.4665 314.433 45.4912V274.388Z" fill="#6A8CAD"/>
<path d="M313.712 273.667C313.712 295.692 295.692 313.712 273.667 313.712H44.7702C22.7456 313.712 4.72534 295.692 4.72534 273.667V44.7705C4.72534 22.7458 22.7456 4.72559 44.7702 4.72559H273.667C295.692 4.72559 313.712 22.7458 313.712 44.7705V273.667Z" fill="#5A7FA4"/>
<path d="M312.991 272.947C312.991 294.971 294.971 312.991 272.946 312.991H44.0494C22.0247 312.991 4.00452 294.971 4.00452 272.947V44.0498C4.00452 22.0251 22.0247 4.00488 44.0494 4.00488H272.946C294.971 4.00488 312.991 22.0251 312.991 44.0498V272.947Z" fill="#49729B"/>
<path d="M270.944 312.991H42.0471C18.8612 312.991 0 294.13 0 270.944V42.0471C0 18.8612 18.8612 0 42.0471 0H270.944C294.13 0 312.991 18.8612 312.991 42.0471V270.944C312.991 294.13 294.13 312.991 270.944 312.991ZM42.0471 4.00449C21.0636 4.00449 4.00449 21.0636 4.00449 42.0471V270.944C4.00449 291.927 21.0636 308.986 42.0471 308.986H270.944C291.927 308.986 308.986 291.927 308.986 270.944V42.0471C308.986 21.0636 291.927 4.00449 270.944 4.00449H42.0471Z" fill="white"/>
<path d="M312.991 272.947C312.991 294.971 294.971 312.991 272.946 312.991H44.0494C22.0247 312.991 4.00452 294.971 4.00452 272.947V44.0498C4.00452 22.0251 22.0247 4.00488 44.0494 4.00488H272.946C294.971 4.00488 312.991 22.0251 312.991 44.0498V272.947Z" fill="#F5F9FA"/>
<path d="M177.839 221.168V227.976H186.649C186.209 225.773 185.969 223.491 185.929 221.168H177.839Z" fill="#49729B"/>
<path d="M131.628 81.5719C131.628 82.5329 131.548 83.494 131.468 84.4551H225.052C229.377 84.4551 232.861 87.979 232.861 92.3039V152.732C232.861 157.057 229.337 160.58 225.052 160.58H177.84V167.388H225.052C233.142 167.388 239.709 160.821 239.709 152.732V92.3039C239.709 84.2148 233.142 77.6475 225.052 77.6475H131.387C131.508 78.7287 131.588 79.89 131.628 81.0513C131.628 81.2115 131.628 81.4117 131.628 81.5719Z" fill="#49729B"/>
<path d="M223.05 187.29C204.67 187.29 189.733 202.227 189.733 220.607C189.733 238.988 204.67 253.925 223.05 253.925C241.431 253.925 256.367 238.988 256.367 220.607C256.367 202.227 241.431 187.29 223.05 187.29ZM223.05 247.518C208.234 247.518 196.14 235.464 196.14 220.607C196.14 205.751 208.193 193.697 223.05 193.697C237.907 193.697 249.96 205.791 249.96 220.607C249.96 235.424 237.907 247.518 223.05 247.518Z" fill="#FF6243"/>
<path d="M151.29 142.44L149.648 144.082L148.006 142.44C145.203 139.637 140.317 139.637 137.514 142.44C134.511 145.443 134.511 150.169 137.394 153.052L139.236 154.894L149.448 165.105L149.688 165.306L161.942 153.052C164.825 150.169 164.825 145.443 161.942 142.56C158.858 139.517 154.133 139.637 151.33 142.44H151.29Z" fill="#FF6243"/>
<path d="M161.461 129.426H95.1467C98.5105 132.149 100.713 136.233 100.713 140.879V242.312C100.713 246.958 98.5105 251.082 95.1467 253.765H161.461C168.389 253.765 173.995 248.159 173.995 241.231V141.92C173.995 134.992 168.349 129.386 161.461 129.386V129.426ZM161.902 153.052L149.648 165.306L149.408 165.106L139.196 154.894L137.354 153.052C134.471 150.169 134.471 145.444 137.474 142.44C140.277 139.637 145.163 139.637 147.966 142.44L149.608 144.082L151.25 142.44C154.053 139.637 158.818 139.517 161.862 142.561C164.745 145.444 164.745 150.169 161.862 153.052H161.902Z" fill="#49729B"/>
<path d="M96.9087 140.879C96.9087 134.832 91.9832 129.906 85.9364 129.906H69.1576C62.2298 129.906 56.5835 135.513 56.5835 142.44V240.751C56.5835 247.678 62.2298 253.285 69.1576 253.285H85.9364C91.9832 253.285 96.9087 248.359 96.9087 242.312V140.839V140.879Z" fill="#49729B"/>
<path d="M86.9776 95.1068C92.4237 100.353 98.7908 103.076 105.438 103.076C117.972 103.076 127.823 93.6252 127.823 81.6117C127.823 81.3714 127.823 81.2112 127.823 81.0911C127.623 65.9141 117.412 59.0664 107.36 59.0664C100.272 59.0664 93.0644 62.23 87.0577 68.0365C80.5304 74.0432 74.6037 76.9264 68.8773 76.9264C68.3567 76.9264 67.9162 76.9264 67.4357 76.8864V86.377C67.8762 86.377 68.3567 86.337 68.8773 86.337C74.6037 86.337 80.5304 89.2202 86.9776 95.1869V95.1068Z" fill="#49729B"/>
<path d="M62.8305 85.8168H64.9929C64.9129 84.6555 64.9129 83.294 64.9129 81.5721V81.0515C64.9129 79.0492 64.9529 77.4875 65.073 76.2861H62.8305C60.2276 76.2861 58.1052 78.4085 58.1052 81.0114V81.0915C58.1052 83.6944 60.2276 85.7768 62.8305 85.8168Z" fill="#49729B"/>
<path d="M219.206 220.608C219.206 222.73 220.928 224.412 223.01 224.412C225.093 224.412 226.814 222.69 226.814 220.608L223.01 199.624L219.206 220.608Z" fill="#FF6243"/>
</g>
<defs>
<clipPath id="clip0_470_67">
<rect width="321" height="321" fill="white"/>
</clipPath>
</defs>
</svg>
