<svg width="312" height="312" viewBox="0 0 312 312" fill="none" xmlns="http://www.w3.org/2000/svg">
<g clip-path="url(#clip0_470_125)">
<path d="M312 273.078C312 294.485 294.485 312 273.078 312H50.5989C29.1917 312 11.6768 294.485 11.6768 273.078V50.5989C11.6768 29.1917 29.1917 11.6768 50.5989 11.6768H273.078C294.485 11.6768 312 29.1917 312 50.5989V273.078Z" fill="white"/>
<path d="M311.299 272.378C311.299 293.785 293.784 311.3 272.377 311.3H49.8982C28.491 311.3 10.9761 293.785 10.9761 272.378V49.8987C10.9761 28.4915 28.491 10.9766 49.8982 10.9766H272.377C293.784 10.9766 311.299 28.4915 311.299 49.8987V272.378Z" fill="#EEF2F6"/>
<path d="M310.56 271.638C310.56 293.045 293.045 310.56 271.638 310.56H49.1978C27.7906 310.56 10.2756 293.045 10.2756 271.638V49.1975C10.2756 27.7904 27.7906 10.2754 49.1978 10.2754H271.677C293.084 10.2754 310.599 27.7904 310.599 49.1975V271.677L310.56 271.638Z" fill="#DEE5ED"/>
<path d="M309.859 270.937C309.859 292.345 292.345 309.859 270.937 309.859H48.4583C27.0511 309.859 9.53613 292.345 9.53613 270.937V48.4583C9.53613 27.0511 27.0511 9.53613 48.4583 9.53613H270.937C292.345 9.53613 309.859 27.0511 309.859 48.4583V270.937Z" fill="#CDD9E4"/>
<path d="M309.159 270.237C309.159 291.644 291.644 309.159 270.237 309.159H47.7576C26.3504 309.159 8.83545 291.644 8.83545 270.237V47.7581C8.83545 26.3509 26.3504 8.83594 47.7576 8.83594H270.237C291.644 8.83594 309.159 26.3509 309.159 47.7581V270.237Z" fill="#BDCCDB"/>
<path d="M308.458 269.536C308.458 290.943 290.943 308.458 269.536 308.458H47.0569C25.6497 308.458 8.13477 290.943 8.13477 269.536V47.0569C8.13477 25.6497 25.6497 8.13477 47.0569 8.13477H269.536C290.943 8.13477 308.458 25.6497 308.458 47.0569V269.536Z" fill="#ACBFD2"/>
<path d="M307.758 268.836C307.758 290.243 290.243 307.758 268.835 307.758H46.3565C24.9493 307.758 7.43433 290.243 7.43433 268.836V46.3567C7.43433 24.9495 24.9493 7.43457 46.3565 7.43457H268.835C290.243 7.43457 307.758 24.9495 307.758 46.3567V268.836Z" fill="#9CB2C8"/>
<path d="M307.057 268.097C307.057 289.504 289.542 307.019 268.135 307.019H45.6558C24.2486 307.019 6.73364 289.504 6.73364 268.097V45.6565C6.73364 24.2493 24.2486 6.73438 45.6558 6.73438H268.135C289.542 6.73438 307.057 24.2493 307.057 45.6565V268.136V268.097Z" fill="#8BA5BF"/>
<path d="M306.317 267.395C306.317 288.802 288.802 306.317 267.395 306.317H44.9551C23.5479 306.317 6.03296 288.802 6.03296 267.395V44.9163C6.03296 23.5091 23.5479 5.99414 44.9551 5.99414H267.434C288.841 5.99414 306.356 23.5091 306.356 44.9163V267.395H306.317Z" fill="#7B98B6"/>
<path d="M305.617 266.695C305.617 288.102 288.102 305.617 266.695 305.617H44.2156C22.8084 305.617 5.29346 288.102 5.29346 266.695V44.2161C5.29346 22.8089 22.8084 5.29395 44.2156 5.29395H266.695C288.102 5.29395 305.617 22.8089 305.617 44.2161V266.695Z" fill="#6A8CAD"/>
<path d="M304.916 265.994C304.916 287.401 287.401 304.916 265.994 304.916H43.5152C22.108 304.916 4.59302 287.401 4.59302 265.994V43.5149C4.59302 22.1077 22.108 4.59277 43.5152 4.59277H265.994C287.401 4.59277 304.916 22.1077 304.916 43.5149V265.994Z" fill="#5A7FA4"/>
<path d="M304.216 265.294C304.216 286.701 286.701 304.216 265.294 304.216H42.8145C21.4073 304.216 3.89233 286.701 3.89233 265.294V42.8147C3.89233 21.4075 21.4073 3.89258 42.8145 3.89258H265.294C286.701 3.89258 304.216 21.4075 304.216 42.8147V265.294Z" fill="#49729B"/>
<path d="M263.347 304.216H40.8683C18.3323 304.216 0 285.883 0 263.347V40.8683C0 18.3323 18.3323 0 40.8683 0H263.347C285.883 0 304.216 18.3323 304.216 40.8683V263.347C304.216 285.883 285.883 304.216 263.347 304.216ZM40.8683 3.89222C20.4731 3.89222 3.89222 20.4731 3.89222 40.8683V263.347C3.89222 283.743 20.4731 300.323 40.8683 300.323H263.347C283.743 300.323 300.323 283.743 300.323 263.347V40.8683C300.323 20.4731 283.743 3.89222 263.347 3.89222H40.8683Z" fill="white"/>
<path d="M304.216 265.294C304.216 286.701 286.701 304.216 265.294 304.216H42.8145C21.4073 304.216 3.89233 286.701 3.89233 265.294V42.8147C3.89233 21.4075 21.4073 3.89258 42.8145 3.89258H265.294C286.701 3.89258 304.216 21.4075 304.216 42.8147V265.294Z" fill="#F5F9FA"/>
<path d="M145.724 98.2393H101.587V131.09H145.724V98.2393Z" fill="#FF6243"/>
<path d="M153.898 158.102H170.245V154.326H153.898C151.368 154.326 151.368 158.102 153.898 158.102Z" fill="#FF6243"/>
<path d="M153.898 136.383H170.245V132.607H153.898C151.368 132.607 151.368 136.383 153.898 136.383Z" fill="#FF6243"/>
<path d="M153.898 147.242H170.245V143.467H153.898C151.368 143.467 151.368 147.242 153.898 147.242Z" fill="#FF6243"/>
<path d="M212.32 50.4043H204.769V81.1139H182.272V77.066H173.904V69.8265C173.904 68.8145 173.087 67.9582 172.036 67.9582H90.3382C89.3262 67.9582 88.4699 68.7756 88.4699 69.8265V77.066H84.2664V83.566H88.4699V182.195C88.4699 182.195 88.4699 182.234 88.4699 182.273C88.4699 182.467 88.5089 182.662 88.5867 182.856C88.5867 182.856 88.5867 182.895 88.5867 182.934C88.6646 183.129 88.7813 183.323 88.937 183.479C88.9759 183.518 89.0538 183.557 89.1316 183.596C89.2095 183.674 89.2873 183.752 89.4041 183.829L109.177 194.611V204.808C109.177 204.808 109.215 204.925 109.215 205.003C109.215 205.081 109.177 205.12 109.177 205.198V214.15C109.177 215.162 109.994 216.018 111.045 216.018H124.317V253.773H128.015V216.018H134.242V253.773H137.94V216.018H151.212C152.224 216.018 153.081 215.201 153.081 214.15V205.198C153.081 205.198 153.042 205.042 153.042 205.003C153.042 204.925 153.081 204.886 153.081 204.808V194.611L172.853 183.829C172.853 183.829 173.048 183.674 173.126 183.596C173.203 183.557 173.242 183.518 173.32 183.479C173.476 183.323 173.593 183.129 173.671 182.934C173.671 182.934 173.671 182.895 173.671 182.856C173.748 182.662 173.787 182.467 173.787 182.273C173.787 182.273 173.787 182.234 173.787 182.195V83.566H178.108V88.4702H204.653V253.811H219.754V50.4432H212.203L212.32 50.4043ZM149.5 202.94H112.991V195.35H149.5V202.94ZM150.862 191.653H111.59L97.6556 184.024H164.835L150.901 191.653H150.862ZM170.245 86.563V180.288H92.2454V83.527H170.245V86.563ZM170.245 77.066H92.2454V71.6558H170.245V77.066Z" fill="#49729B"/>
<path d="M153.898 93.0245H170.245V89.249H153.898C151.368 89.249 151.368 93.0245 153.898 93.0245Z" fill="#FF6243"/>
<path d="M153.898 103.883H170.245V100.107H153.898C151.368 100.107 151.368 103.883 153.898 103.883Z" fill="#FF6243"/>
<path d="M153.898 125.563H170.245V121.787H153.898C151.368 121.787 151.368 125.563 153.898 125.563Z" fill="#FF6243"/>
<path d="M153.898 114.704H170.245V110.929H153.898C151.368 110.929 151.368 114.704 153.898 114.704Z" fill="#FF6243"/>
</g>
<defs>
<clipPath id="clip0_470_125">
<rect width="312" height="312" fill="white"/>
</clipPath>
</defs>
</svg>
