<svg width="312" height="312" viewBox="0 0 312 312" fill="none" xmlns="http://www.w3.org/2000/svg">
<g clip-path="url(#clip0_470_250)">
<path d="M312 273.078C312 294.485 294.485 312 273.078 312H50.5989C29.1917 312 11.6768 294.485 11.6768 273.078V50.5989C11.6768 29.1917 29.1917 11.6768 50.5989 11.6768H273.078C294.485 11.6768 312 29.1917 312 50.5989V273.078Z" fill="white"/>
<path d="M311.299 272.378C311.299 293.785 293.784 311.3 272.377 311.3H49.8982C28.491 311.3 10.9761 293.785 10.9761 272.378V49.8987C10.9761 28.4915 28.491 10.9766 49.8982 10.9766H272.377C293.784 10.9766 311.299 28.4915 311.299 49.8987V272.378Z" fill="#EEF2F6"/>
<path d="M310.56 271.638C310.56 293.045 293.045 310.56 271.638 310.56H49.1978C27.7906 310.56 10.2756 293.045 10.2756 271.638V49.1975C10.2756 27.7904 27.7906 10.2754 49.1978 10.2754H271.677C293.084 10.2754 310.599 27.7904 310.599 49.1975V271.677L310.56 271.638Z" fill="#DEE5ED"/>
<path d="M309.859 270.937C309.859 292.344 292.344 309.859 270.937 309.859H48.4583C27.0511 309.859 9.53613 292.344 9.53613 270.937V48.4583C9.53613 27.0511 27.0511 9.53613 48.4583 9.53613H270.937C292.344 9.53613 309.859 27.0511 309.859 48.4583V270.937Z" fill="#CDD9E4"/>
<path d="M309.159 270.237C309.159 291.644 291.644 309.159 270.237 309.159H47.7576C26.3504 309.159 8.83545 291.644 8.83545 270.237V47.7581C8.83545 26.3509 26.3504 8.83594 47.7576 8.83594H270.237C291.644 8.83594 309.159 26.3509 309.159 47.7581V270.237Z" fill="#BDCCDB"/>
<path d="M308.458 269.536C308.458 290.943 290.943 308.458 269.536 308.458H47.0569C25.6497 308.458 8.13477 290.943 8.13477 269.536V47.0569C8.13477 25.6497 25.6497 8.13477 47.0569 8.13477H269.536C290.943 8.13477 308.458 25.6497 308.458 47.0569V269.536Z" fill="#ACBFD2"/>
<path d="M307.758 268.836C307.758 290.243 290.243 307.758 268.835 307.758H46.3565C24.9493 307.758 7.43433 290.243 7.43433 268.836V46.3567C7.43433 24.9495 24.9493 7.43457 46.3565 7.43457H268.835C290.243 7.43457 307.758 24.9495 307.758 46.3567V268.836Z" fill="#9CB2C8"/>
<path d="M307.057 268.097C307.057 289.504 289.542 307.019 268.135 307.019H45.6558C24.2486 307.019 6.73364 289.504 6.73364 268.097V45.6565C6.73364 24.2493 24.2486 6.73438 45.6558 6.73438H268.135C289.542 6.73438 307.057 24.2493 307.057 45.6565V268.136V268.097Z" fill="#8BA5BF"/>
<path d="M306.317 267.395C306.317 288.803 288.802 306.318 267.395 306.318H44.9551C23.5479 306.318 6.03296 288.803 6.03296 267.395V44.9554C6.03296 23.5482 23.5479 6.0332 44.9551 6.0332H267.434C288.841 6.0332 306.356 23.5482 306.356 44.9554V267.434L306.317 267.395Z" fill="#7B98B6"/>
<path d="M305.617 266.695C305.617 288.102 288.102 305.617 266.695 305.617H44.2156C22.8084 305.617 5.29346 288.102 5.29346 266.695V44.2161C5.29346 22.8089 22.8084 5.29395 44.2156 5.29395H266.695C288.102 5.29395 305.617 22.8089 305.617 44.2161V266.695Z" fill="#6A8CAD"/>
<path d="M304.916 265.994C304.916 287.401 287.401 304.916 265.994 304.916H43.5152C22.108 304.916 4.59302 287.401 4.59302 265.994V43.5149C4.59302 22.1077 22.108 4.59277 43.5152 4.59277H265.994C287.401 4.59277 304.916 22.1077 304.916 43.5149V265.994Z" fill="#5A7FA4"/>
<path d="M304.216 265.294C304.216 286.701 286.701 304.216 265.294 304.216H42.8145C21.4073 304.216 3.89233 286.701 3.89233 265.294V42.8147C3.89233 21.4075 21.4073 3.89258 42.8145 3.89258H265.294C286.701 3.89258 304.216 21.4075 304.216 42.8147V265.294Z" fill="#49729B"/>
<path d="M263.347 304.216H40.8683C18.3323 304.216 0 285.883 0 263.347V40.8683C0 18.3323 18.3323 0 40.8683 0H263.347C285.883 0 304.216 18.3323 304.216 40.8683V263.347C304.216 285.883 285.883 304.216 263.347 304.216ZM40.8683 3.89222C20.4731 3.89222 3.89222 20.4731 3.89222 40.8683V263.347C3.89222 283.743 20.4731 300.323 40.8683 300.323H263.347C283.743 300.323 300.323 283.743 300.323 263.347V40.8683C300.323 20.4731 283.743 3.89222 263.347 3.89222H40.8683Z" fill="white"/>
<path d="M304.216 265.294C304.216 286.701 286.701 304.216 265.294 304.216H42.8145C21.4073 304.216 3.89233 286.701 3.89233 265.294V42.8147C3.89233 21.4075 21.4073 3.89258 42.8145 3.89258H265.294C286.701 3.89258 304.216 21.4075 304.216 42.8147V265.294Z" fill="#F5F9FA"/>
<path d="M142.3 71.6949C145.686 71.6949 148.449 68.9314 148.449 65.5452C148.449 62.159 145.686 59.3955 142.3 59.3955C138.913 59.3955 136.15 62.159 136.15 65.5452C136.15 68.9314 138.913 71.6949 142.3 71.6949ZM141.093 61.4973C142.689 61.4973 143.973 62.7817 143.973 64.3775C143.973 65.9734 142.689 67.2578 141.093 67.2578C139.497 67.2578 138.213 65.9734 138.213 64.3775C138.213 62.7817 139.497 61.4973 141.093 61.4973Z" fill="#49729B"/>
<path d="M197.258 213.06H160.515V183.908C165.303 181.611 174.644 175.072 192.782 157.285C205.509 144.83 221.273 116.689 216.602 93.2578C211.853 69.5542 198.347 62.159 187.838 60.1351C186.904 59.9405 185.931 59.8626 184.958 59.7848C186.165 61.4195 186.865 63.4045 186.865 65.5842C186.865 65.9734 186.788 66.3237 186.749 66.7129C199.009 69.165 206.871 78.5063 210.102 94.5812C214.267 115.366 199.476 141.482 188.15 152.575C167.599 172.776 159.386 177.291 157.09 178.264V178.186C156.817 178.108 149.928 176.434 125.252 152.225C113.964 141.132 99.1349 115.015 103.3 94.2309C106.53 78.1171 114.431 68.698 126.847 66.3237C128.677 65.9734 130.74 65.9345 132.53 66.0123C132.53 65.8955 132.491 65.7399 132.491 65.6231C132.491 63.2878 133.347 61.186 134.71 59.5123C132.297 59.3177 128.794 59.2399 125.641 59.8626C115.132 61.8866 101.626 69.2818 96.8774 92.9854C92.2067 116.417 107.97 144.518 120.698 157.012C140.198 176.162 149.578 182.273 153.976 184.102V213.138H133.698C132.919 208.039 130.545 203.485 127.081 199.982C122.8 195.701 116.922 193.054 110.422 193.054C97.4223 193.054 86.8354 203.641 86.8354 216.641C86.8354 223.141 89.4822 229.018 93.7636 233.3C98.045 237.581 103.922 240.228 110.422 240.228C122.527 240.228 132.53 233.455 133.853 219.755H153.976V229.174C153.976 237.893 161.06 244.976 169.779 244.976H197.569C206.288 244.976 213.371 237.893 213.371 228.94C213.371 224.659 211.698 220.689 208.662 217.692C205.626 214.695 201.539 213.021 197.374 213.177L197.258 213.06ZM110.344 234.351C105.44 234.351 101.003 232.366 97.7726 229.135C94.542 225.905 92.557 221.467 92.557 216.563C92.557 206.755 100.536 198.815 110.306 198.815C115.21 198.815 119.647 200.8 122.877 204.03C126.108 207.261 128.093 211.698 128.093 216.602C128.093 226.411 120.114 234.351 110.344 234.351ZM197.452 238.282H169.662C164.602 238.282 160.515 234.156 160.515 229.135V219.716H197.297C199.826 219.716 202.123 220.611 203.874 222.324C205.626 224.075 206.599 226.372 206.599 229.096C206.599 234.156 202.473 238.243 197.452 238.243V238.282Z" fill="#49729B"/>
<path d="M183.168 65.5843C183.168 62.198 180.404 59.4346 177.018 59.4346C173.632 59.4346 170.868 62.198 170.868 65.5843C170.868 68.9705 173.632 71.734 177.018 71.734C180.404 71.734 183.168 68.9705 183.168 65.5843ZM174.177 67.219C172.581 67.219 171.297 65.9346 171.297 64.3388C171.297 62.743 172.581 61.4585 174.177 61.4585C175.773 61.4585 177.057 62.743 177.057 64.3388C177.057 65.9346 175.773 67.219 174.177 67.219Z" fill="#49729B"/>
<path d="M110.344 200.645C101.587 200.645 94.4253 207.767 94.4253 216.564C94.4253 220.806 96.0989 224.815 99.0959 227.812C102.093 230.809 106.102 232.483 110.344 232.483C119.141 232.483 126.264 225.36 126.264 216.564C126.264 212.321 124.629 208.351 121.593 205.315C118.596 202.318 114.587 200.645 110.344 200.645ZM117.895 216.564C117.895 220.728 114.509 224.154 110.306 224.154C106.102 224.154 102.716 220.767 102.716 216.564C102.716 212.36 106.102 209.013 110.306 209.013C114.509 209.013 117.895 212.399 117.895 216.564Z" fill="#FF6243"/>
<path d="M106.452 216.563C106.452 218.704 108.204 220.417 110.305 220.417C112.407 220.417 114.159 218.665 114.159 216.563C114.159 214.461 112.407 212.71 110.305 212.71C108.204 212.71 106.452 214.461 106.452 216.563Z" fill="#49729B"/>
</g>
<defs>
<clipPath id="clip0_470_250">
<rect width="312" height="312" fill="white"/>
</clipPath>
</defs>
</svg>
