<svg width="146" height="31" viewBox="0 0 146 31" fill="none" xmlns="http://www.w3.org/2000/svg">
<path d="M41.376 14.008H41.304L40.08 16.456L36.816 22.384L33.624 16.48L32.352 13.84H32.28V25H28.848V8.248H32.712L36.816 16.096H36.864L40.92 8.248H44.808V25H41.376V14.008ZM48.5121 25V8.248H59.9121V11.488H52.1601V14.92H58.8081V18.136H52.1601V21.76H59.9121V25H48.5121ZM63.0902 8.248H69.4022C70.5062 8.248 71.5142 8.424 72.4262 8.776C73.3382 9.128 74.1142 9.656 74.7542 10.36C75.3942 11.048 75.8902 11.92 76.2422 12.976C76.5942 14.016 76.7702 15.232 76.7702 16.624C76.7702 18.016 76.5942 19.24 76.2422 20.296C75.8902 21.336 75.3942 22.208 74.7542 22.912C74.1142 23.6 73.3382 24.12 72.4262 24.472C71.5142 24.824 70.5062 25 69.4022 25H63.0902V8.248ZM69.4022 21.76C70.4902 21.76 71.3462 21.456 71.9702 20.848C72.5942 20.24 72.9062 19.264 72.9062 17.92V15.328C72.9062 13.984 72.5942 13.008 71.9702 12.4C71.3462 11.792 70.4902 11.488 69.4022 11.488H66.7382V21.76H69.4022ZM79.1766 25V22.096H81.3366V11.152H79.1766V8.248H87.1446V11.152H84.9846V22.096H87.1446V25H79.1766ZM96.9519 25.288C95.8159 25.288 94.7919 25.112 93.8799 24.76C92.9679 24.392 92.1919 23.856 91.5519 23.152C90.9119 22.432 90.4159 21.544 90.0639 20.488C89.7119 19.416 89.5359 18.168 89.5359 16.744C89.5359 15.336 89.7119 14.088 90.0639 13C90.4159 11.896 90.9119 10.976 91.5519 10.24C92.1919 9.488 92.9679 8.92 93.8799 8.536C94.7919 8.152 95.8159 7.96 96.9519 7.96C98.5039 7.96 99.7839 8.28 100.792 8.92C101.8 9.544 102.608 10.536 103.216 11.896L100.072 13.528C99.8479 12.824 99.4959 12.264 99.0159 11.848C98.5519 11.416 97.8639 11.2 96.9519 11.2C95.8799 11.2 95.0159 11.552 94.3599 12.256C93.7199 12.944 93.3999 13.952 93.3999 15.28V17.968C93.3999 19.296 93.7199 20.312 94.3599 21.016C95.0159 21.704 95.8799 22.048 96.9519 22.048C97.8479 22.048 98.5599 21.808 99.0879 21.328C99.6319 20.832 100.032 20.24 100.288 19.552L103.264 21.28C102.64 22.56 101.816 23.552 100.792 24.256C99.7839 24.944 98.5039 25.288 96.9519 25.288ZM115.949 25L114.749 21.016H109.157L107.957 25H104.261L109.781 8.248H114.293L119.741 25H115.949ZM111.989 11.56H111.869L110.021 17.92H113.861L111.989 11.56ZM122.059 25V8.248H125.707V21.76H132.091V25H122.059ZM134.786 25V8.248H138.434V21.76H144.818V25H134.786Z" fill="#0360D9"/>
<path fill-rule="evenodd" clip-rule="evenodd" d="M11.5 4C5.14873 4 0 9.14873 0 15.5V25.9048C0 26.5096 0.490355 27 1.09524 27H11.5C17.8513 27 23 21.8513 23 15.5C23 9.14873 17.8513 4 11.5 4ZM11.5 8.92857C12.4073 8.92857 13.1429 9.6641 13.1429 10.5714V13.8571H16.4286C17.3359 13.8571 18.0714 14.5927 18.0714 15.5C18.0714 16.4073 17.3359 17.1429 16.4286 17.1429H13.1429V20.4286C13.1429 21.3359 12.4073 22.0714 11.5 22.0714C10.5927 22.0714 9.85714 21.3359 9.85714 20.4286V17.1429H6.57143C5.6641 17.1429 4.92857 16.4073 4.92857 15.5C4.92857 14.5927 5.6641 13.8571 6.57143 13.8571H9.85714V10.5714C9.85714 9.6641 10.5927 8.92857 11.5 8.92857Z" fill="#0360D9"/>
</svg>
