<svg width="984" height="984" viewBox="0 0 984 984" fill="none" xmlns="http://www.w3.org/2000/svg">
<path d="M984 752.563H0V752.957H984V752.563Z" fill="#E0E0E0"/>
<path d="M190.502 764.371H169.838V764.765H190.502V764.371Z" fill="#E0E0E0"/>
<path d="M889.339 777.36H810.816V777.754H889.339V777.36Z" fill="#E0E0E0"/>
<path d="M830.89 764.765H770.472V765.158H830.89V764.765Z" fill="#E0E0E0"/>
<path d="M654.754 775.982H556.747V776.376H654.754V775.982Z" fill="#E0E0E0"/>
<path d="M384.547 772.834H281.424V773.228H384.547V772.834Z" fill="#E0E0E0"/>
<path d="M775.195 777.36H749.021V777.754H775.195V777.36Z" fill="#E0E0E0"/>
<path d="M160.195 772.637H127.723V773.03H160.195V772.637Z" fill="#E0E0E0"/>
<path d="M466.416 664.791H86.3951C80.2943 664.791 75.1775 659.674 75.1775 653.573V119.458C75.1775 113.357 80.2943 108.24 86.3951 108.24H466.416C472.517 108.24 477.633 113.357 477.633 119.458V653.573C477.633 659.674 472.517 664.791 466.416 664.791ZM86.3951 108.634C80.4911 108.634 75.5711 113.357 75.5711 119.458V653.573C75.5711 659.477 80.2943 664.397 86.3951 664.397H466.416C472.32 664.397 477.24 659.674 477.24 653.573V119.458C477.24 113.554 472.517 108.634 466.416 108.634H86.3951Z" fill="#E0E0E0"/>
<path d="M892.094 664.791H512.074C505.973 664.791 500.856 659.674 500.856 653.573V119.458C500.856 113.357 505.973 108.24 512.074 108.24H892.094C898.195 108.24 903.312 113.357 903.312 119.458V653.573C903.312 659.674 898.195 664.791 892.094 664.791ZM512.074 108.634C506.17 108.634 501.25 113.357 501.25 119.458V653.573C501.25 659.477 505.973 664.397 512.074 664.397H892.094C897.998 664.397 902.918 659.674 902.918 653.573V119.458C902.918 113.554 898.195 108.634 892.094 108.634H512.074Z" fill="#E0E0E0"/>
<path d="M432.566 156.063H135.989V566.391H432.566V156.063Z" fill="#E0E0E0"/>
<path d="M425.875 156.063H129.298V566.391H425.875V156.063Z" fill="#F0F0F0"/>
<path d="M414.067 167.871H141.106V554.19H414.067V167.871Z" fill="#FAFAFA"/>
<path d="M246.394 167.871H228.485V554.19H246.394V167.871Z" fill="#E0E0E0"/>
<path d="M340.07 167.871H322.162V554.19H340.07V167.871Z" fill="#E0E0E0"/>
<path d="M240.096 159.016H222.187V561.865H240.096V159.016Z" fill="#F0F0F0"/>
<path d="M333.773 159.016H315.864V561.865H333.773V159.016Z" fill="#F0F0F0"/>
<path d="M146.026 167.871H141.106V554.19H146.026V167.871Z" fill="#E0E0E0"/>
<path d="M124.378 140.516H441.619C442.406 140.516 443.194 141.106 443.194 142.09C443.194 142.877 442.603 143.664 441.619 143.664H124.378C123.59 143.664 122.803 143.074 122.803 142.09C122.803 141.303 123.394 140.516 124.378 140.516Z" fill="#E0E0E0"/>
<path d="M115.325 142.09C115.325 146.223 118.67 149.765 123 149.765C127.33 149.765 130.675 146.42 130.675 142.09C130.675 137.761 127.33 134.415 123 134.415C118.67 134.415 115.325 137.761 115.325 142.09Z" fill="#E0E0E0"/>
<path d="M428.827 150.749C430.008 150.749 430.795 149.765 430.795 148.781V144.451C430.795 143.271 429.811 142.483 428.827 142.483C427.646 142.483 426.859 143.467 426.859 144.451V148.781C426.859 149.962 427.843 150.749 428.827 150.749Z" fill="#E0E0E0"/>
<path d="M147.403 150.749C148.584 150.749 149.371 149.765 149.371 148.781V144.451C149.371 143.271 148.387 142.483 147.403 142.483C146.222 142.483 145.435 143.467 145.435 144.451V148.781C145.435 149.962 146.419 150.749 147.403 150.749Z" fill="#E0E0E0"/>
<path opacity="0.4" d="M421.349 142.09H124.968V340.858H421.349V142.09Z" fill="#E0E0E0"/>
<path d="M396.552 142.09C396.552 146.223 399.897 149.765 404.227 149.765C408.557 149.765 411.902 146.42 411.902 142.09C411.902 137.761 408.557 134.415 404.227 134.415C399.897 134.415 396.552 137.761 396.552 142.09Z" fill="#E0E0E0"/>
<path d="M621.297 411.706C621.297 411.706 647.078 367.426 611.261 332.002C611.261 332.002 602.011 338.103 602.011 346.172C602.011 354.24 612.048 356.405 609.883 363.293C607.718 370.181 598.469 376.872 604.569 382.383C610.67 387.893 603.585 393.01 603.979 399.898C604.373 406.786 621.101 411.706 621.101 411.706H621.297Z" fill="#E0E0E0"/>
<path d="M617.165 418.791C617.165 418.791 606.734 368.607 651.801 346.368C651.801 346.368 658.689 355.027 655.934 362.703C653.179 370.378 643.142 369.197 643.142 376.479C643.142 383.76 649.637 392.813 642.158 396.355C634.68 399.898 639.797 406.786 637.238 413.28C634.68 419.775 617.361 418.987 617.361 418.987L617.165 418.791Z" fill="#E6E6E6"/>
<path d="M650.03 391.436C650.03 391.436 649.44 452.247 625.037 452.247C600.633 452.247 600.043 391.436 600.043 391.436H649.833H650.03Z" fill="#F0F0F0"/>
<path d="M796.056 429.418C796.056 429.418 794.678 452.247 742.723 452.247C690.768 452.247 689.39 429.418 689.39 429.418H795.859H796.056Z" fill="#E6E6E6"/>
<path d="M266.467 683.684H293.822C297.168 683.684 299.923 680.929 299.923 677.584V632.32C299.923 628.974 297.168 626.219 293.822 626.219H266.467C263.121 626.219 260.366 628.974 260.366 632.32V677.584C260.366 680.929 263.121 683.684 266.467 683.684Z" fill="#F0F0F0"/>
<path d="M193.848 683.685H212.347C214.709 683.685 216.48 681.913 216.48 679.552V649.048C216.48 646.686 214.709 644.915 212.347 644.915H193.848C191.486 644.915 189.715 646.686 189.715 649.048V679.552C189.715 681.913 191.486 683.685 193.848 683.685Z" fill="#E6E6E6"/>
<path d="M191.093 645.505H215.102C215.889 645.505 216.48 644.915 216.48 644.128V642.553C216.48 641.766 215.889 641.176 215.102 641.176H191.093C190.305 641.176 189.715 641.766 189.715 642.553V644.128C189.715 644.915 190.305 645.505 191.093 645.505Z" fill="#F0F0F0"/>
<path d="M363.49 651.605C363.49 651.605 362.506 683.684 324.917 683.684C287.328 683.684 286.344 651.605 286.344 651.605H363.49Z" fill="#E6E6E6"/>
<path d="M456.969 683.685H400.094V694.902H456.969V683.685Z" fill="#E0E0E0"/>
<path d="M400.094 683.685H117.49V694.902H400.094V683.685Z" fill="#F0F0F0"/>
<path d="M456.969 713.598H400.094V724.815H456.969V713.598Z" fill="#E0E0E0"/>
<path d="M400.094 713.598H117.49V724.815H400.094V713.598Z" fill="#F0F0F0"/>
<path d="M446.933 694.902H436.502V752.565H446.933V694.902Z" fill="#E0E0E0"/>
<path d="M399.897 694.902H389.467V752.565H399.897V694.902Z" fill="#F0F0F0"/>
<path d="M164.131 694.902H153.701V752.565H164.131V694.902Z" fill="#E0E0E0"/>
<path d="M127.92 694.902H117.49V752.565H127.92V694.902Z" fill="#F0F0F0"/>
<path d="M849.782 466.613H796.056V737.804H849.782V466.613Z" fill="#E6E6E6"/>
<path d="M839.352 737.804H574.262V752.564H839.352V737.804Z" fill="#E6E6E6"/>
<path d="M796.056 466.613H564.029V737.804H796.056V466.613Z" fill="#F0F0F0"/>
<path d="M774.801 570.917H585.086V633.499H774.801V570.917Z" fill="#E6E6E6"/>
<path d="M774.801 647.275H585.086V709.858H774.801V647.275Z" fill="#E6E6E6"/>
<path d="M658.689 579.38H701.198C704.15 579.38 706.512 577.019 706.512 574.067C706.512 571.115 704.15 568.753 701.198 568.753H658.689C655.737 568.753 653.376 571.115 653.376 574.067C653.376 577.019 655.737 579.38 658.689 579.38Z" fill="#F0F0F0"/>
<path d="M774.801 494.362H585.086V556.945H774.801V494.362Z" fill="#E6E6E6"/>
<path d="M658.689 502.824H701.198C704.15 502.824 706.512 500.463 706.512 497.511C706.512 494.559 704.15 492.197 701.198 492.197H658.689C655.737 492.197 653.376 494.559 653.376 497.511C653.376 500.463 655.737 502.824 658.689 502.824Z" fill="#F0F0F0"/>
<path d="M658.689 655.739H701.198C704.15 655.739 706.512 653.377 706.512 650.425C706.512 647.473 704.15 645.111 701.198 645.111H658.689C655.737 645.111 653.376 647.473 653.376 650.425C653.376 653.377 655.737 655.739 658.689 655.739Z" fill="#F0F0F0"/>
<path d="M796.056 452.247H556.944V466.417H796.056V452.247Z" fill="#E6E6E6"/>
<path d="M857.261 452.247H796.056V466.417H857.261V452.247Z" fill="#E0E0E0"/>
<path d="M820.262 196.997H710.645V321.375H820.262V196.997Z" fill="#E6E6E6"/>
<path d="M815.342 196.997H698.443V321.375H815.342V196.997Z" fill="#F0F0F0"/>
<path d="M805.699 206.837H708.283V311.535H805.699V206.837Z" fill="#FAFAFA"/>
<path d="M782.083 232.225H731.899V286.148H782.083V232.225Z" fill="#F0F0F0"/>
<path d="M673.646 160.196H591.384V252.495H673.646V160.196Z" fill="#E6E6E6"/>
<path d="M668.923 160.196H582.134V252.495H668.923V160.196Z" fill="#F0F0F0"/>
<path d="M661.642 167.478H589.416V245.214H661.642V167.478Z" fill="#FAFAFA"/>
<path d="M625.627 186.765L645.307 221.008H605.947L625.627 186.765Z" fill="#F0F0F0"/>
<path d="M492 841.32C702.749 841.32 873.595 831.363 873.595 819.081C873.595 806.799 702.749 796.843 492 796.843C281.251 796.843 110.405 806.799 110.405 819.081C110.405 831.363 281.251 841.32 492 841.32Z" fill="#F5F5F5"/>
<path d="M770.472 323.343H606.537C593.352 323.343 582.528 334.167 582.528 347.352V436.109C582.528 449.295 593.352 460.119 606.537 460.119H623.069L616.574 486.096C616.574 486.096 644.913 485.112 664.593 460.119H770.275C783.461 460.119 794.285 449.295 794.285 436.109V347.352C794.285 334.167 783.461 323.343 770.275 323.343H770.472Z" fill="#407BFF"/>
<path opacity="0.3" d="M770.472 323.343H606.537C593.352 323.343 582.528 334.167 582.528 347.352V436.109C582.528 449.295 593.352 460.119 606.537 460.119H623.069L616.574 486.096C616.574 486.096 644.913 485.112 664.593 460.119H770.275C783.461 460.119 794.285 449.295 794.285 436.109V347.352C794.285 334.167 783.461 323.343 770.275 323.343H770.472Z" fill="black"/>
<path d="M751.185 411.903C762.381 411.903 771.456 402.828 771.456 391.633C771.456 380.438 762.381 371.362 751.185 371.362C739.99 371.362 730.915 380.438 730.915 391.633C730.915 402.828 739.99 411.903 751.185 411.903Z" fill="#407BFF"/>
<path d="M688.603 411.903C699.798 411.903 708.874 402.828 708.874 391.633C708.874 380.438 699.798 371.362 688.603 371.362C677.408 371.362 668.333 380.438 668.333 391.633C668.333 402.828 677.408 411.903 688.603 411.903Z" fill="#407BFF"/>
<path d="M625.824 411.903C637.019 411.903 646.094 402.828 646.094 391.633C646.094 380.438 637.019 371.362 625.824 371.362C614.629 371.362 605.553 380.438 605.553 391.633C605.553 402.828 614.629 411.903 625.824 411.903Z" fill="#407BFF"/>
<g opacity="0.1">
<path d="M751.185 411.903C762.381 411.903 771.456 402.828 771.456 391.633C771.456 380.438 762.381 371.362 751.185 371.362C739.99 371.362 730.915 380.438 730.915 391.633C730.915 402.828 739.99 411.903 751.185 411.903Z" fill="#FAFAFA"/>
<path d="M688.603 411.903C699.798 411.903 708.874 402.828 708.874 391.633C708.874 380.438 699.798 371.362 688.603 371.362C677.408 371.362 668.333 380.438 668.333 391.633C668.333 402.828 677.408 411.903 688.603 411.903Z" fill="#FAFAFA"/>
<path d="M625.824 411.903C637.019 411.903 646.094 402.828 646.094 391.633C646.094 380.438 637.019 371.362 625.824 371.362C614.629 371.362 605.553 380.438 605.553 391.633C605.553 402.828 614.629 411.903 625.824 411.903Z" fill="#FAFAFA"/>
</g>
<path d="M368.606 196.013H532.541C545.726 196.013 556.55 206.837 556.55 220.022V308.779C556.55 321.965 545.726 332.789 532.541 332.789H516.009L522.504 358.766C522.504 358.766 494.165 357.782 474.485 332.789H368.803C355.617 332.789 344.793 321.965 344.793 308.779V220.022C344.793 206.837 355.617 196.013 368.803 196.013H368.606Z" fill="#407BFF"/>
<path opacity="0.1" d="M368.606 196.013H532.541C545.726 196.013 556.55 206.837 556.55 220.022V308.779C556.55 321.965 545.726 332.789 532.541 332.789H516.009L522.504 358.766C522.504 358.766 494.165 357.782 474.485 332.789H368.803C355.617 332.789 344.793 321.965 344.793 308.779V220.022C344.793 206.837 355.617 196.013 368.803 196.013H368.606Z" fill="#FAFAFA"/>
<path d="M527.621 226.91H373.723V241.473H527.621V226.91Z" fill="#407BFF"/>
<path d="M492.394 257.021H373.723V271.584H492.394V257.021Z" fill="#407BFF"/>
<path d="M507.941 287.131H373.723V301.694H507.941V287.131Z" fill="#407BFF"/>
<g opacity="0.3">
<path d="M527.621 226.91H373.723V241.473H527.621V226.91Z" fill="black"/>
<path d="M492.394 257.021H373.723V271.584H492.394V257.021Z" fill="black"/>
<path d="M507.941 287.131H373.723V301.694H507.941V287.131Z" fill="black"/>
</g>
<path d="M586.661 612.638C585.48 612.638 584.496 612.638 583.315 612.638C559.896 614.213 541.003 634.089 539.626 658.493C539.232 664.003 539.822 669.513 541.2 674.433C546.514 695.294 548.678 716.942 548.678 738.393V801.369C548.678 805.896 552.221 809.635 556.55 809.635H586.858H581.741H712.81V612.441H586.858L586.661 612.638Z" fill="#0360D9"/>
<path opacity="0.3" d="M586.661 612.638C585.48 612.638 584.496 612.638 583.315 612.638C559.896 614.213 541.003 634.089 539.626 658.493C539.232 664.003 539.822 669.513 541.2 674.433C546.514 695.294 548.678 716.942 548.678 738.393V801.369C548.678 805.896 552.221 809.635 556.55 809.635H586.858H581.741H712.81V612.441H586.858L586.661 612.638Z" fill="black"/>
<path d="M759.648 661.838C759.648 633.499 736.622 610.867 709.07 612.835C685.651 614.41 666.758 634.286 665.381 658.69C664.987 664.2 665.577 669.71 666.955 674.63C672.269 695.491 674.434 717.139 674.434 738.59V801.566C674.434 806.093 677.976 809.832 682.306 809.832H742.723C747.053 809.832 750.595 806.093 750.595 801.566V735.048C750.595 714.778 752.76 694.507 757.877 675.024C759.057 670.891 759.648 666.365 759.648 661.838Z" fill="#0360D9"/>
<path d="M647.472 690.177H448.31V809.831H647.472V690.177Z" fill="#0360D9"/>
<path opacity="0.3" d="M647.472 690.177H448.31V809.831H647.472V690.177Z" fill="black"/>
<path d="M562.454 546.71H342.629C322.555 546.71 306.221 563.044 306.221 583.118V717.139H599.059V583.118C599.059 563.044 582.725 546.71 562.651 546.71H562.454Z" fill="#0360D9"/>
<path opacity="0.4" d="M562.454 546.71H342.629C322.555 546.71 306.221 563.044 306.221 583.118V717.139H599.059V583.118C599.059 563.044 582.725 546.71 562.651 546.71H562.454Z" fill="black"/>
<path d="M573.869 546.71H385.925C366.835 546.71 351.288 562.257 351.288 581.347V717.139H608.505V581.347C608.505 562.257 592.958 546.71 573.869 546.71Z" fill="#0360D9"/>
<path d="M644.914 677.582H459.725C457.954 677.582 456.576 678.959 456.576 680.73V724.617C456.576 726.388 457.954 727.766 459.725 727.766H644.914C650.818 727.766 655.738 723.042 655.738 716.942V688.209C655.738 682.305 651.014 677.385 644.914 677.385V677.582Z" fill="#0360D9"/>
<path opacity="0.4" d="M644.914 677.582H459.725C457.954 677.582 456.576 678.959 456.576 680.73V724.617C456.576 726.388 457.954 727.766 459.725 727.766H644.914C650.818 727.766 655.738 723.042 655.738 716.942V688.209C655.738 682.305 651.014 677.385 644.914 677.385V677.582Z" fill="black"/>
<path d="M709.07 815.736H292.838C289.69 815.736 286.934 813.178 286.934 809.832H714.974C714.974 813.178 712.416 815.736 709.07 815.736Z" fill="#0360D9"/>
<path opacity="0.4" d="M709.07 815.736H292.838C289.69 815.736 286.934 813.178 286.934 809.832H714.974C714.974 813.178 712.416 815.736 709.07 815.736Z" fill="black"/>
<path d="M542.577 526.833L543.365 529.982L544.349 533.524C544.939 535.886 545.726 538.247 546.317 540.609C547.694 545.332 549.269 550.055 550.843 554.582C552.417 559.305 553.992 563.831 555.763 568.555C556.55 570.916 557.534 573.278 558.321 575.443L559.305 578.198C559.305 578.591 559.699 578.985 560.093 579.575C561.667 581.543 565.406 583.905 569.539 585.479C573.672 587.251 578.198 588.431 582.921 589.612C587.645 590.793 592.368 591.58 597.288 592.367C602.208 593.155 607.128 593.745 612.048 594.335V604.175C601.617 605.159 591.187 605.356 580.56 604.175C575.246 603.585 569.736 602.601 564.225 601.027C561.47 600.239 558.715 599.059 555.763 597.681C553.008 596.303 550.056 594.532 547.301 591.777C545.923 590.399 544.742 588.825 543.561 587.054C543.365 586.66 542.971 586.07 542.774 585.676L542.381 584.692L541.593 582.921C540.413 580.559 539.232 578.198 538.248 575.836C536.083 571.113 534.115 566.193 532.147 561.47C530.179 556.55 528.408 551.63 526.833 546.513C526.046 543.955 525.259 541.396 524.669 538.838L523.685 534.902C523.291 533.524 523.094 532.343 522.897 530.769L542.577 527.03V526.833Z" fill="#B55B52"/>
<path d="M536.28 505.972C544.152 507.94 549.662 540.609 549.662 540.609L527.817 555.369C527.817 555.369 506.957 522.504 513.057 513.844C519.355 504.792 524.669 503.02 536.28 505.972Z" fill="#0360D9"/>
<path opacity="0.5" d="M536.28 505.972C544.152 507.94 549.662 540.609 549.662 540.609L527.817 555.369C527.817 555.369 506.957 522.504 513.057 513.844C519.355 504.792 524.669 503.02 536.28 505.972Z" fill="#FAFAFA"/>
<path d="M537.067 517.78L520.142 521.716L518.568 538.247C523.094 547.3 528.014 555.369 528.014 555.369L541.2 546.316C540.609 538.641 539.232 522.897 537.067 517.78Z" fill="#0360D9"/>
<path opacity="0.3" d="M537.067 517.78L520.142 521.716L518.568 538.247C523.094 547.3 528.014 555.369 528.014 555.369L541.2 546.316C540.609 538.641 539.232 522.897 537.067 517.78Z" fill="#FAFAFA"/>
<path d="M609.293 594.139L622.872 580.363L624.643 599.846C624.643 599.846 614.41 606.734 607.325 602.995L609.293 594.139Z" fill="#B55B52"/>
<path d="M639.009 578.396L639.6 594.73L624.643 599.847L622.872 580.364L639.009 578.396Z" fill="#B55B52"/>
<path d="M536.28 505.972C536.28 505.972 545.53 509.121 527.03 621.888H448.901C450.278 590.203 450.278 570.523 435.125 505.382C435.125 505.382 451.459 501.84 468.187 501.052C481.373 500.462 492 500.068 503.611 501.052C518.765 502.43 536.083 505.972 536.083 505.972H536.28Z" fill="#0360D9"/>
<path opacity="0.5" d="M536.28 505.972C536.28 505.972 545.53 509.121 527.03 621.888H448.901C450.278 590.203 450.278 570.523 435.125 505.382C435.125 505.382 451.459 501.84 468.187 501.052C481.373 500.462 492 500.068 503.611 501.052C518.765 502.43 536.083 505.972 536.083 505.972H536.28Z" fill="#FAFAFA"/>
<path d="M512.861 502.036C509.909 501.643 506.76 501.249 503.808 501.052C492.197 500.068 481.57 500.462 468.384 501.052C465.629 501.052 462.874 501.446 460.315 501.643L460.906 503.414C461.299 504.398 468.974 528.211 497.117 540.806L502.43 543.168L506.17 538.641C518.371 524.275 515.419 509.515 512.664 502.036H512.861Z" fill="#0360D9"/>
<path opacity="0.3" d="M512.861 502.036C509.909 501.643 506.76 501.249 503.808 501.052C492.197 500.068 481.57 500.462 468.384 501.052C465.629 501.052 462.874 501.446 460.315 501.643L460.906 503.414C461.299 504.398 468.974 528.211 497.117 540.806L502.43 543.168L506.17 538.641C518.371 524.275 515.419 509.515 512.664 502.036H512.861Z" fill="black"/>
<path d="M453.624 535.689L443.587 544.349C445.752 555.763 447.13 565.209 448.114 573.672C450.082 565.209 454.805 542.184 453.624 535.689Z" fill="#0360D9"/>
<path opacity="0.3" d="M453.624 535.689L443.587 544.349C445.752 555.763 447.13 565.209 448.114 573.672C450.082 565.209 454.805 542.184 453.624 535.689Z" fill="#FAFAFA"/>
<path d="M482.553 403.44C461.889 396.945 450.475 419.184 452.443 446.933C453.821 466.809 449.885 475.469 437.88 474.878C443.39 487.867 513.648 507.547 533.918 484.128C528.211 480.979 525.259 467.203 529.589 455.001C539.035 427.253 530.179 385.334 482.553 403.243V403.44Z" fill="#263238"/>
<path d="M471.926 461.103C474.091 472.517 476.453 493.378 468.384 501.053C468.384 501.053 475.075 522.307 500.462 533.722C513.845 517.978 503.808 501.053 503.808 501.053C491.016 498.101 491.41 488.655 493.574 479.799L471.73 461.299L471.926 461.103Z" fill="#B55B52"/>
<path d="M480.782 468.777L493.574 479.798C492.984 481.963 492.59 483.931 492.393 486.096C487.473 485.309 480.782 479.995 480.389 474.878C480.192 472.32 480.389 469.958 480.585 468.777H480.782Z" fill="#9E4541"/>
<path d="M472.91 429.221C468.384 447.72 466.219 455.592 472.517 467.597C481.963 485.899 505.776 487.277 515.616 470.549C524.472 455.395 530.376 427.646 514.829 414.854C499.478 402.259 477.437 410.525 472.91 429.221Z" fill="#B55B52"/>
<path d="M469.761 440.044C469.761 440.044 508.137 428.039 490.622 407.966C469.958 413.083 469.761 419.183 469.761 419.183V440.044Z" fill="#263238"/>
<path d="M492.984 419.578C507.35 421.152 521.717 429.614 526.44 437.29C529.195 424.104 519.749 407.77 509.318 405.408C498.888 403.046 486.293 407.966 486.293 407.966L493.181 419.381L492.984 419.578Z" fill="#263238"/>
<path d="M463.464 441.619C463.464 445.555 465.038 449.295 467.203 451.656C470.549 455.199 474.485 452.837 475.665 448.507C476.649 444.571 476.059 437.88 471.729 435.912C467.597 433.944 463.661 437.29 463.464 441.816V441.619Z" fill="#B55B52"/>
<path d="M625.627 637.239C582.134 636.648 553.598 666.562 553.598 666.562C557.731 678.763 560.486 687.816 560.486 687.816C584.299 683.487 611.457 681.715 633.893 676.402C654.163 671.482 656.328 647.275 654.36 637.042C652.195 626.808 640.781 624.643 629.563 621.298C616.771 617.559 592.368 617.559 574.853 617.559C556.353 617.559 532.147 619.33 519.355 622.085C519.355 622.085 492.59 621.298 472.91 621.691C461.299 620.117 468.187 636.845 486.489 651.015C505.382 665.775 529.982 671.482 553.598 667.939" fill="#263238"/>
<path d="M557.534 684.864L552.024 664.003C551.827 663.216 551.04 662.822 550.449 662.822L533.328 664.79C531.557 664.987 530.376 666.955 530.769 668.726C532.737 676.008 534.115 679.353 536.673 688.603C538.248 694.31 540.609 706.118 542.774 713.794C544.742 721.469 552.614 719.894 552.417 716.549C551.63 701.198 554.385 694.31 557.337 688.21C557.928 687.029 557.928 685.848 557.731 684.864H557.534Z" fill="#263238"/>
<path d="M559.896 697.065C559.502 697.065 559.109 697.065 558.715 696.672C556.354 695.097 555.763 689.784 555.566 686.635C555.566 686.635 555.566 686.438 555.566 686.241C555.566 686.241 555.763 686.241 555.96 686.241C556.55 687.028 562.258 693.326 561.667 695.884C561.667 696.278 561.274 696.672 560.683 696.868C560.29 696.868 560.093 696.868 559.699 696.868L559.896 697.065ZM556.157 687.619C556.55 692.145 557.534 695.294 558.912 696.278C559.502 696.672 559.896 696.672 560.486 696.278C560.683 696.278 560.88 696.081 560.88 695.688C561.274 693.916 557.928 689.587 555.96 687.422L556.157 687.619Z" fill="#0360D9"/>
<path d="M557.731 688.603L550.449 661.444L559.896 657.705L573.278 686.635L557.731 688.603Z" fill="#0360D9"/>
<path opacity="0.6" d="M557.731 688.603L550.449 661.444L559.896 657.705L573.278 686.635L557.731 688.603Z" fill="#FAFAFA"/>
<path d="M563.438 691.358C561.077 691.358 556.944 688.603 555.566 686.832C555.566 686.832 555.566 686.635 555.566 686.438C555.566 686.438 555.566 686.438 555.763 686.241C555.96 686.241 561.077 685.257 563.635 687.029C564.422 687.619 564.816 688.209 565.013 689.193C565.013 690.374 564.816 690.768 564.226 690.965C564.029 690.965 563.832 690.965 563.438 690.965V691.358ZM556.354 686.832C558.322 688.8 562.454 691.161 563.832 690.571C563.832 690.571 564.422 690.374 564.226 689.39C564.226 688.603 563.832 688.012 563.045 687.619C561.274 686.241 557.731 686.635 556.354 686.832Z" fill="#0360D9"/>
<path d="M464.054 623.069C439.848 619.92 404.03 618.739 401.866 643.93C399.898 669.12 417.216 695.098 464.645 696.475C512.074 697.853 522.307 686.045 523.882 675.811C526.046 663.019 529.786 659.674 518.371 653.966C507.154 648.259 504.989 628.186 463.858 623.069H464.054Z" fill="#263238"/>
<path d="M515.222 689.194L509.712 668.333C509.515 667.546 509.712 666.759 510.499 666.562L526.44 659.871C528.014 659.083 530.179 660.264 530.573 662.035C532.344 669.317 532.934 673.056 535.296 682.109C536.87 687.816 540.413 699.231 542.577 707.103C544.545 714.778 537.067 717.336 535.493 714.384C528.408 700.608 522.701 696.082 517.19 692.343C516.206 691.752 515.616 690.571 515.222 689.587V689.194Z" fill="#263238"/>
<path d="M518.174 701.395C517.781 701.395 517.387 701.395 517.19 701.001C515.419 699.033 517.19 690.768 517.387 689.784C517.387 689.784 517.387 689.587 517.584 689.587C517.584 689.587 517.781 689.587 517.978 689.587C519.355 692.342 521.52 697.459 520.339 700.017C519.945 700.805 519.355 701.198 518.568 701.395C518.568 701.395 518.568 701.395 518.371 701.395H518.174ZM517.781 690.768C517.19 693.72 516.403 699.23 517.781 700.411C517.781 700.411 518.174 700.608 518.371 700.608C518.961 700.608 519.552 700.214 519.749 699.624C520.733 697.656 518.961 692.933 517.781 690.768Z" fill="#0360D9"/>
<path d="M512.664 697.853C512.27 697.853 511.68 697.656 511.286 696.672C510.893 695.885 511.09 694.901 511.286 694.113C512.664 691.358 517.387 689.587 517.584 689.587C517.584 689.587 517.781 689.587 517.978 689.587C517.978 689.587 517.978 689.587 517.978 689.981C517.584 692.342 514.829 697.853 512.664 698.049V697.853ZM517.387 690.374C516.01 690.965 512.861 692.342 511.877 694.507C511.483 695.097 511.483 695.885 511.877 696.475C512.27 697.262 512.664 697.262 512.664 697.262C514.042 697.262 516.6 693.129 517.387 690.374Z" fill="#0360D9"/>
<path d="M516.206 688.997L511.68 663.609L500.659 663.216L501.446 695.491L516.206 688.997Z" fill="#0360D9"/>
<path opacity="0.6" d="M516.206 688.997L511.68 663.609L500.659 663.216L501.446 695.491L516.206 688.997Z" fill="#FAFAFA"/>
<path d="M499.085 442.799C498.691 444.374 499.085 445.751 500.069 445.948C501.053 446.145 502.233 445.358 502.627 443.783C503.021 442.209 502.627 440.831 501.643 440.635C500.659 440.241 499.478 441.225 499.085 442.799Z" fill="#263238"/>
<path d="M515.813 447.917C515.419 449.491 515.813 450.869 516.797 451.065C517.781 451.459 518.961 450.475 519.355 448.901C519.749 447.326 519.355 445.949 518.371 445.752C517.387 445.358 516.206 446.342 515.813 447.917Z" fill="#263238"/>
<path d="M517.978 445.752H521.914C521.914 445.752 519.158 448.114 517.978 445.752Z" fill="#263238"/>
<path d="M510.499 449.098C510.499 449.098 511.09 456.182 512.861 460.118C510.302 461.299 507.35 459.528 507.35 459.528L510.499 449.098Z" fill="#A02724"/>
<path d="M499.085 462.873C494.362 460.511 492.787 455.591 492.787 455.395C492.787 455.395 492.787 455.001 492.984 455.001C492.984 455.001 493.378 455.001 493.378 455.198C493.378 455.198 494.952 460.118 499.282 462.283C499.282 462.283 499.478 462.479 499.282 462.676C499.282 462.676 499.282 462.676 499.085 462.676V462.873Z" fill="#263238"/>
<path d="M498.101 432.763C498.101 432.763 497.707 432.763 497.707 432.567C497.707 432.37 497.707 431.976 497.707 431.779C501.84 429.024 505.382 430.599 505.579 430.795C505.776 430.795 505.973 431.189 505.973 431.583C505.973 431.779 505.579 431.976 505.185 431.976C505.185 431.976 501.84 430.599 498.297 432.96C498.297 432.96 498.101 432.96 497.904 432.96L498.101 432.763Z" fill="#263238"/>
<path d="M526.44 442.996C526.243 442.996 526.046 442.996 525.85 442.603C523.882 438.863 520.339 438.47 520.339 438.47C519.946 438.47 519.749 438.076 519.749 437.879C519.749 437.486 520.142 437.289 520.339 437.289C520.339 437.289 524.472 437.683 526.834 442.012C526.834 442.209 526.834 442.603 526.637 442.799C526.637 442.799 526.637 442.799 526.44 442.799V442.996Z" fill="#263238"/>
<path d="M501.25 440.635H505.186C505.186 440.635 502.43 442.996 501.25 440.635Z" fill="#263238"/>
<path d="M447.917 617.362L447.326 624.25C447.129 624.84 447.72 625.431 448.507 625.431H527.424C528.211 625.431 528.801 625.037 528.801 624.643L529.589 617.755C529.589 617.362 528.998 616.771 528.211 616.771H449.097C448.507 616.771 447.917 616.968 447.917 617.362Z" fill="#0360D9"/>
<path opacity="0.3" d="M447.917 617.362L447.326 624.25C447.129 624.84 447.72 625.431 448.507 625.431H527.424C528.211 625.431 528.801 625.037 528.801 624.643L529.589 617.755C529.589 617.362 528.998 616.771 528.211 616.771H449.097C448.507 616.771 447.917 616.968 447.917 617.362Z" fill="black"/>
<path d="M458.544 626.218H456.379C455.986 626.218 455.592 626.021 455.592 625.824L456.576 616.771C456.576 616.575 456.97 616.378 457.363 616.378H459.528C459.922 616.378 460.315 616.575 460.315 616.771L459.331 625.824C459.331 626.021 458.938 626.218 458.544 626.218Z" fill="#263238"/>
<path d="M521.52 626.218H519.355C518.961 626.218 518.568 626.021 518.568 625.824L519.552 616.771C519.552 616.575 519.945 616.378 520.339 616.378H522.504C522.897 616.378 523.291 616.575 523.291 616.771L522.307 625.824C522.307 626.021 521.913 626.218 521.52 626.218Z" fill="#263238"/>
<path d="M490.032 626.218H487.867C487.473 626.218 487.08 626.021 487.08 625.824L488.064 616.771C488.064 616.575 488.457 616.378 488.851 616.378H491.016C491.409 616.378 491.803 616.575 491.803 616.771L490.819 625.824C490.819 626.021 490.425 626.218 490.032 626.218Z" fill="#263238"/>
<path d="M666.955 567.965H529.982L510.105 648.85H647.078L666.955 567.965Z" fill="#FAFAFA"/>
<path d="M597.682 633.893L513.845 653.376L460.118 638.419L460.709 633.893H597.682Z" fill="#FAFAFA"/>
<path d="M446.933 533.327C445.358 538.641 443.587 544.348 442.013 549.859C440.438 555.369 438.667 560.879 437.29 566.39C435.912 571.9 434.534 577.411 433.354 582.724C432.763 585.479 432.37 588.038 431.976 590.596C431.582 592.958 431.582 596.107 431.582 595.91C431.582 596.697 432.566 598.271 433.944 599.649C435.322 601.223 437.29 602.798 439.258 604.372C443.39 607.324 448.114 610.079 453.23 612.638C463.267 617.558 473.894 622.084 484.718 626.02L482.357 635.663C470.352 633.695 458.741 630.743 447.326 626.414C441.619 624.249 435.912 621.691 430.205 618.345C427.45 616.574 424.498 614.606 421.742 612.047C418.987 609.489 416.232 606.143 414.658 601.223C414.264 600.043 413.87 598.665 413.87 597.287V596.303V595.516V594.139C413.87 592.367 413.87 590.596 413.87 589.022C413.87 585.676 414.461 582.527 414.854 579.575C415.642 573.475 416.822 567.374 418.2 561.667C419.578 555.763 420.955 550.055 422.726 544.348C424.498 538.641 426.072 532.934 428.04 527.227L447.13 533.524L446.933 533.327Z" fill="#B55B52"/>
<path d="M435.322 505.382C427.45 507.744 415.445 538.445 415.445 538.445L445.752 560.093C445.752 560.093 459.331 533.918 456.182 523.685C452.837 513.254 444.178 502.627 435.322 505.185V505.382Z" fill="#0360D9"/>
<path opacity="0.5" d="M435.322 505.382C427.45 507.744 415.445 538.445 415.445 538.445L445.752 560.093C445.752 560.093 459.331 533.918 456.182 523.685C452.837 513.254 444.178 502.627 435.322 505.185V505.382Z" fill="#FAFAFA"/>
<path d="M480.782 626.611L499.085 622.085L490.425 639.6C490.425 639.6 478.027 640.191 474.091 633.303L480.979 626.808L480.782 626.611Z" fill="#B55B52"/>
<path d="M513.648 628.579L505.579 642.945L490.229 639.403L498.888 621.888L513.648 628.579Z" fill="#B55B52"/>
<path d="M671.285 567.965H534.312L514.435 648.85H651.408L671.285 567.965Z" fill="#0360D9"/>
<path d="M651.408 648.85L650.818 653.376H513.845L514.435 648.85H651.408Z" fill="#0360D9"/>
<path d="M756.893 747.053H754.925V770.669H756.893V747.053Z" fill="#0360D9"/>
<path opacity="0.3" d="M756.893 747.053H754.925V770.669H756.893V747.053Z" fill="black"/>
<path d="M756.893 779.722H754.925V788.184H756.893V779.722Z" fill="#0360D9"/>
<path opacity="0.3" d="M756.893 779.722H754.925V788.184H756.893V779.722Z" fill="black"/>
<path d="M289.296 612.638C288.115 612.638 287.131 612.638 285.95 612.638C262.531 614.213 243.638 634.089 242.261 658.493C241.867 664.003 242.458 669.513 243.835 674.433C249.149 695.294 251.314 716.942 251.314 738.393V801.369C251.314 805.896 254.856 809.635 259.186 809.635H450.869V612.441H289.493L289.296 612.638Z" fill="#0360D9"/>
<path opacity="0.3" d="M289.296 612.638C288.115 612.638 287.131 612.638 285.95 612.638C262.531 614.213 243.638 634.089 242.261 658.493C241.867 664.003 242.458 669.513 243.835 674.433C249.149 695.294 251.314 716.942 251.314 738.393V801.369C251.314 805.896 254.856 809.635 259.186 809.635H450.869V612.441H289.493L289.296 612.638Z" fill="black"/>
<path d="M497.707 661.838C497.707 633.499 474.682 610.867 447.13 612.835C423.71 614.41 404.818 634.286 403.44 658.69C403.046 664.2 403.637 669.71 405.014 674.63C410.328 695.491 412.493 717.139 412.493 738.59V801.566C412.493 806.093 416.035 809.832 420.365 809.832H480.782C485.112 809.832 488.654 806.093 488.654 801.566V735.048C488.654 714.778 490.819 694.507 495.936 675.024C497.117 670.891 497.707 666.365 497.707 661.838Z" fill="#0360D9"/>
</svg>
