<svg width="983" height="983" viewBox="0 0 983 983" fill="none" xmlns="http://www.w3.org/2000/svg">
<path d="M818.839 723.684L802.718 734.89C783.844 748.259 757.5 743.541 744.328 724.667L643.668 581.346C630.3 562.472 635.018 536.128 653.892 522.956L670.013 511.749C688.886 498.381 715.231 503.099 728.403 521.973L829.062 665.294C842.431 684.168 837.713 710.512 818.839 723.684Z" fill="#FFC49C"/>
<path d="M777.553 752.191L761.432 763.397C742.558 776.766 716.214 772.048 703.042 753.174L602.382 609.853C589.014 590.979 593.732 564.635 612.606 551.462L628.727 540.256C647.6 526.887 673.945 531.606 687.117 550.479L787.776 693.801C801.145 712.674 796.427 739.019 777.553 752.191Z" fill="#FFC49C"/>
<path d="M808.026 727.223L801.735 728.992C781.288 734.694 759.859 722.504 754.158 702.058L682.595 444.315C676.894 423.869 689.083 402.44 709.53 396.738L715.821 394.969C736.267 389.267 757.696 401.457 763.398 421.903L834.96 679.646C840.662 700.092 828.473 721.521 808.026 727.223Z" fill="#FFC49C"/>
<path d="M235.723 841.841H242.211C263.444 842.627 281.335 825.72 281.924 804.29L289.002 536.914C289.592 515.682 272.684 497.791 251.255 497.201H244.767C223.534 496.415 205.644 513.322 205.054 534.752L197.976 802.128C197.386 823.361 214.294 841.251 235.723 841.841Z" fill="#FFC49C"/>
<path d="M367.642 841.841H235.92C222.944 841.841 212.328 831.224 212.328 818.249V631.479C212.328 618.503 222.944 607.887 235.92 607.887H367.642C380.617 607.887 391.234 618.503 391.234 631.479V818.249C391.234 831.224 380.617 841.841 367.642 841.841Z" fill="#FFC49C"/>
<path d="M696.16 812.744H267.179C247.323 812.744 231.005 796.426 231.005 776.569V190.898C231.005 171.041 247.323 154.724 267.179 154.724H696.16C716.017 154.724 732.335 171.041 732.335 190.898V776.569C732.335 796.426 716.017 812.744 696.16 812.744Z" fill="#5E5E5E"/>
<path d="M736.857 349.358C730.369 349.358 724.864 344.05 724.864 337.365V242.604C724.864 236.116 730.172 230.611 736.857 230.611C743.344 230.611 748.849 235.92 748.849 242.604V337.365C748.849 343.853 743.541 349.358 736.857 349.358Z" fill="#5E5E5E"/>
<path d="M705.991 812.744H277.009C257.153 812.744 240.835 796.426 240.835 776.569V190.898C240.835 171.041 257.153 154.724 277.009 154.724H705.991C725.847 154.724 742.165 171.041 742.165 190.898V776.569C742.165 796.426 725.847 812.744 705.991 812.744Z" fill="#0360D9"/>
<path d="M709.333 189.325H273.47V742.558H709.333V189.325Z" fill="white"/>
<path d="M491.5 797.016C503.009 797.016 512.34 787.686 512.34 776.176C512.34 764.667 503.009 755.337 491.5 755.337C479.991 755.337 470.66 764.667 470.66 776.176C470.66 787.686 479.991 797.016 491.5 797.016Z" stroke="white" stroke-width="1.6" stroke-miterlimit="10"/>
<path d="M489.534 612.409C595.833 612.409 682.005 526.236 682.005 419.937C682.005 313.638 595.833 227.466 489.534 227.466C383.235 227.466 297.062 313.638 297.062 419.937C297.062 526.236 383.235 612.409 489.534 612.409Z" fill="#0360D9"/>
<mask id="mask0_470_504" style="mask-type:luminance" maskUnits="userSpaceOnUse" x="296" y="228" width="386" height="386">
<path d="M488.944 613.195C595.243 613.195 681.415 527.022 681.415 420.723C681.415 314.424 595.243 228.252 488.944 228.252C382.645 228.252 296.473 314.424 296.473 420.723C296.473 527.022 382.645 613.195 488.944 613.195Z" fill="white"/>
</mask>
<g mask="url(#mask0_470_504)">
<path d="M516.665 659.396H461.027C415.023 659.396 377.472 621.846 377.472 575.841V520.203C377.472 474.199 415.023 436.648 461.027 436.648H516.665C562.669 436.648 600.22 474.199 600.22 520.203V575.841C600.22 621.846 562.669 659.396 516.665 659.396Z" fill="#4AE5FF"/>
</g>
<mask id="mask1_470_504" style="mask-type:luminance" maskUnits="userSpaceOnUse" x="296" y="228" width="386" height="386">
<path d="M488.944 613.195C595.243 613.195 681.415 527.022 681.415 420.723C681.415 314.424 595.243 228.252 488.944 228.252C382.645 228.252 296.473 314.424 296.473 420.723C296.473 527.022 382.645 613.195 488.944 613.195Z" fill="white"/>
</mask>
<g mask="url(#mask1_470_504)">
<path d="M518.434 436.648V659.199C563.652 658.216 600.22 621.059 600.22 575.644V520.006C600.22 474.592 563.455 437.434 518.434 436.451V436.648Z" fill="white"/>
</g>
<mask id="mask2_470_504" style="mask-type:luminance" maskUnits="userSpaceOnUse" x="296" y="228" width="386" height="386">
<path d="M488.944 613.195C595.243 613.195 681.415 527.022 681.415 420.723C681.415 314.424 595.243 228.252 488.944 228.252C382.645 228.252 296.473 314.424 296.473 420.723C296.473 527.022 382.645 613.195 488.944 613.195Z" fill="white"/>
</mask>
<g mask="url(#mask2_470_504)">
<path d="M619.487 510.373C618.11 513.126 616.341 515.485 613.392 517.058C610.836 518.434 607.887 519.024 604.938 518.631C598.844 517.844 593.929 513.126 591.963 507.228C590.783 503.689 590.586 498.971 593.339 496.022C595.895 493.269 601.793 491.5 605.331 490.91C607.494 490.517 609.853 490.91 612.016 491.303C615.948 492.286 620.076 492.679 624.008 494.449C624.205 494.449 624.598 494.645 624.598 494.842C624.795 495.235 624.598 495.628 624.598 496.022C624.008 498.577 622.829 500.74 622.042 503.099C621.256 505.458 620.666 508.014 619.487 510.177V510.373Z" fill="#FFC49C"/>
<path d="M577.611 498.184C581.936 498.381 586.261 499.561 590.193 501.723C596.091 505.065 601.399 495.825 595.501 492.68C589.997 489.534 583.902 487.961 577.611 487.765C570.926 487.371 570.926 497.988 577.611 498.381V498.184Z" fill="#FFC49C"/>
<path d="M588.227 463.779C590.193 474.592 591.963 485.601 593.929 496.414C594.912 502.706 604.545 499.953 603.365 493.859C601.399 483.046 599.63 472.036 597.664 461.223C596.681 454.932 587.048 457.684 588.227 463.779Z" fill="#FFC49C"/>
<path d="M599.826 461.223C599.433 470.66 599.237 480.097 598.843 489.534C598.647 495.825 608.477 495.825 608.673 489.534C609.067 480.097 609.263 470.66 609.656 461.223C609.853 454.932 600.023 454.932 599.826 461.223Z" fill="#FFC49C"/>
<path d="M612.016 461.223C610.246 470.463 608.673 479.703 606.904 488.944C605.724 495.038 615.161 497.791 616.341 491.499C618.11 482.259 619.683 473.019 621.452 463.779C622.632 457.684 613.195 454.932 612.016 461.223Z" fill="#FFC49C"/>
<path d="M624.008 468.105C621.059 476.952 617.914 485.995 614.965 494.842C612.999 500.937 622.435 503.493 624.401 497.398C627.35 488.551 630.496 479.507 633.445 470.66C635.411 464.566 625.974 462.01 624.008 468.105Z" fill="#FFC49C"/>
<path d="M571.713 501.133C571.319 501.133 570.73 501.133 570.336 501.133V552.445C570.336 565.421 577.217 576.037 585.868 576.037H612.605C621.059 576.037 628.137 565.421 628.137 552.445V501.329H571.713V501.133Z" fill="white"/>
</g>
<mask id="mask3_470_504" style="mask-type:luminance" maskUnits="userSpaceOnUse" x="296" y="228" width="386" height="386">
<path d="M488.944 613.195C595.243 613.195 681.415 527.022 681.415 420.723C681.415 314.424 595.243 228.252 488.944 228.252C382.645 228.252 296.473 314.424 296.473 420.723C296.473 527.022 382.645 613.195 488.944 613.195Z" fill="white"/>
</mask>
<g mask="url(#mask3_470_504)">
<path d="M488.944 475.182V665.884" stroke="#636363" stroke-width="2.5" stroke-miterlimit="10"/>
</g>
<mask id="mask4_470_504" style="mask-type:luminance" maskUnits="userSpaceOnUse" x="296" y="228" width="386" height="386">
<path d="M488.944 613.195C595.243 613.195 681.415 527.022 681.415 420.723C681.415 314.424 595.243 228.252 488.944 228.252C382.645 228.252 296.473 314.424 296.473 420.723C296.473 527.022 382.645 613.195 488.944 613.195Z" fill="white"/>
</mask>
<g mask="url(#mask4_470_504)">
<path d="M488.747 434.485C518.281 434.485 542.223 407.815 542.223 374.916C542.223 342.016 518.281 315.346 488.747 315.346C459.214 315.346 435.272 342.016 435.272 374.916C435.272 407.815 459.214 434.485 488.747 434.485Z" fill="#FFC49C"/>
<mask id="mask5_470_504" style="mask-type:luminance" maskUnits="userSpaceOnUse" x="435" y="315" width="108" height="120">
<path d="M488.747 434.485C518.281 434.485 542.223 407.815 542.223 374.916C542.223 342.016 518.281 315.346 488.747 315.346C459.214 315.346 435.272 342.016 435.272 374.916C435.272 407.815 459.214 434.485 488.747 434.485Z" fill="white"/>
</mask>
<g mask="url(#mask5_470_504)">
<path d="M486.192 352.503C514.965 352.503 538.291 339.124 538.291 322.62C538.291 306.116 514.965 292.736 486.192 292.736C457.418 292.736 434.093 306.116 434.093 322.62C434.093 339.124 457.418 352.503 486.192 352.503Z" fill="#636363"/>
</g>
<mask id="mask6_470_504" style="mask-type:luminance" maskUnits="userSpaceOnUse" x="435" y="315" width="108" height="120">
<path d="M488.747 434.485C518.281 434.485 542.223 407.815 542.223 374.916C542.223 342.016 518.281 315.346 488.747 315.346C459.214 315.346 435.272 342.016 435.272 374.916C435.272 407.815 459.214 434.485 488.747 434.485Z" fill="white"/>
</mask>
<g mask="url(#mask6_470_504)">
<path d="M457.881 339.134C457.881 339.134 432.717 390.447 432.717 389.267C432.717 388.087 435.469 337.168 435.469 337.168L459.258 340.51" fill="#636363"/>
</g>
<mask id="mask7_470_504" style="mask-type:luminance" maskUnits="userSpaceOnUse" x="435" y="315" width="108" height="120">
<path d="M488.747 434.485C518.281 434.485 542.223 407.815 542.223 374.916C542.223 342.016 518.281 315.346 488.747 315.346C459.214 315.346 435.272 342.016 435.272 374.916C435.272 407.815 459.214 434.485 488.747 434.485Z" fill="white"/>
</mask>
<g mask="url(#mask7_470_504)">
<path d="M517.648 337.168C517.648 337.168 542.812 388.481 542.812 387.301C542.812 386.122 540.06 335.202 540.06 335.202L516.271 338.544" fill="#636363"/>
</g>
<path d="M462.796 393.199C477.738 406.961 498.184 406.568 513.519 393.396C515.878 391.233 512.34 387.891 509.98 389.857C496.808 401.26 479.114 401.653 466.335 389.66C463.976 387.498 460.437 391.036 462.796 393.199Z" fill="#FF9783"/>
</g>
<mask id="mask8_470_504" style="mask-type:luminance" maskUnits="userSpaceOnUse" x="296" y="228" width="386" height="386">
<path d="M488.944 613.195C595.243 613.195 681.415 527.022 681.415 420.723C681.415 314.424 595.243 228.252 488.944 228.252C382.645 228.252 296.473 314.424 296.473 420.723C296.473 527.022 382.645 613.195 488.944 613.195Z" fill="white"/>
</mask>
<g mask="url(#mask8_470_504)">
<path d="M458.078 436.845C413.45 438.418 377.472 475.378 377.472 520.4V576.038C377.472 621.059 413.45 657.823 458.078 659.593V437.041V436.845Z" fill="white"/>
</g>
<mask id="mask9_470_504" style="mask-type:luminance" maskUnits="userSpaceOnUse" x="296" y="228" width="386" height="386">
<path d="M488.944 613.195C595.243 613.195 681.415 527.022 681.415 420.723C681.415 314.424 595.243 228.252 488.944 228.252C382.645 228.252 296.473 314.424 296.473 420.723C296.473 527.022 382.645 613.195 488.944 613.195Z" fill="white"/>
</mask>
<g mask="url(#mask9_470_504)">
<path d="M445.495 430.356C445.495 455.128 464.959 475.181 488.747 475.181C512.536 475.181 531.999 455.128 531.999 430.356" stroke="#636363" stroke-width="2.5" stroke-miterlimit="10"/>
</g>
<path d="M491.5 689.279C503.226 689.279 512.733 679.773 512.733 668.046C512.733 656.32 503.226 646.813 491.5 646.813C479.773 646.813 470.267 656.32 470.267 668.046C470.267 679.773 479.773 689.279 491.5 689.279Z" fill="#F46856"/>
<path d="M499.954 658.02C493.859 664.114 487.961 670.209 481.867 676.107C480.49 677.483 482.653 679.646 484.029 678.27C490.124 672.175 496.022 666.08 502.116 660.182C503.493 658.806 501.33 656.644 499.954 658.02Z" fill="white"/>
<path d="M481.867 660.182C487.961 666.277 493.859 672.372 499.954 678.27C501.33 679.646 503.493 677.483 502.116 676.107C496.022 670.012 490.124 663.918 484.029 658.02C482.653 656.644 480.49 658.806 481.867 660.182Z" fill="white"/>
<path d="M793.281 740.985L789.742 743.737C773.424 755.73 750.422 752.388 738.233 736.07L652.712 620.862C640.719 604.545 644.062 581.542 660.379 569.353L663.918 566.601C680.236 554.608 703.238 557.95 715.427 574.268L800.948 689.476C812.941 705.794 809.599 728.796 793.281 740.985Z" fill="#FFC49C"/>
<path opacity="0.5" d="M653.892 604.938C656.841 608.674 659.986 612.016 662.935 614.965C671.389 623.615 688.297 636.787 701.272 629.513C715.624 621.453 709.726 595.501 704.221 584.099C702.648 580.756 700.682 577.414 698.716 574.269C683.775 584.492 669.03 594.912 654.088 605.135L653.892 604.938Z" fill="#F49090"/>
<path d="M243.194 825.917L239.066 824.344C219.995 817.659 209.969 796.427 216.85 777.356L265.017 642.096C271.701 623.025 292.934 612.999 312.004 619.88L316.133 621.453C335.203 628.137 345.23 649.37 338.349 668.44L290.182 803.701C283.497 822.771 262.264 832.798 243.194 825.917Z" fill="#FFC49C"/>
<path opacity="0.5" d="M280.941 631.676C279.565 636.198 278.385 640.719 277.402 644.651C274.847 656.447 273.077 677.877 286.446 684.758C300.994 692.229 319.475 672.962 325.963 662.149C327.929 659.003 329.698 655.464 331.074 652.122C314.363 645.241 297.456 638.557 280.745 631.676H280.941Z" fill="#F49090"/>
<path d="M259.085 84.5065C259.085 85.4269 258.919 86.2224 258.587 86.8928C258.255 87.5633 257.799 88.0803 257.219 88.444C256.639 88.8076 255.978 88.9894 255.233 88.9894C254.489 88.9894 253.827 88.8076 253.247 88.444C252.668 88.0803 252.212 87.5633 251.88 86.8928C251.547 86.2224 251.381 85.4269 251.381 84.5065C251.381 83.586 251.547 82.7906 251.88 82.1201C252.212 81.4497 252.668 80.9326 253.247 80.569C253.827 80.2053 254.489 80.0235 255.233 80.0235C255.978 80.0235 256.639 80.2053 257.219 80.569C257.799 80.9326 258.255 81.4497 258.587 82.1201C258.919 82.7906 259.085 83.586 259.085 84.5065ZM258.063 84.5065C258.063 83.7508 257.936 83.113 257.684 82.5931C257.434 82.0732 257.094 81.6798 256.665 81.4127C256.239 81.1457 255.762 81.0122 255.233 81.0122C254.705 81.0122 254.226 81.1457 253.797 81.4127C253.371 81.6798 253.032 82.0732 252.779 82.5931C252.529 83.113 252.404 83.7508 252.404 84.5065C252.404 85.2622 252.529 85.8999 252.779 86.4198C253.032 86.9397 253.371 87.3332 253.797 87.6002C254.226 87.8673 254.705 88.0008 255.233 88.0008C255.762 88.0008 256.239 87.8673 256.665 87.6002C257.094 87.3332 257.434 86.9397 257.684 86.4198C257.936 85.8999 258.063 85.2622 258.063 84.5065ZM267.783 80.1428V88.8701H266.76L262.005 82.0178H261.919V88.8701H260.862V80.1428H261.885L266.658 87.0122H266.743V80.1428H267.783ZM269.898 88.8701V80.1428H270.954V87.9326H275.011V88.8701H269.898ZM277.704 80.1428V88.8701H276.648V80.1428H277.704ZM286.744 80.1428V88.8701H285.721L280.965 82.0178H280.88V88.8701H279.823V80.1428H280.846L285.619 87.0122H285.704V80.1428H286.744ZM288.859 88.8701V80.1428H294.126V81.0803H289.915V84.0292H293.853V84.9667H289.915V87.9326H294.194V88.8701H288.859ZM302.099 88.8701H299.405V80.1428H302.218C303.065 80.1428 303.789 80.3176 304.391 80.667C304.994 81.0136 305.455 81.5122 305.776 82.1627C306.097 82.8105 306.258 83.586 306.258 84.4894C306.258 85.3985 306.096 86.1812 305.772 86.8374C305.448 87.4909 304.976 87.9937 304.357 88.346C303.738 88.6954 302.985 88.8701 302.099 88.8701ZM300.462 87.9326H302.03C302.752 87.9326 303.35 87.7934 303.824 87.515C304.299 87.2366 304.653 86.8403 304.886 86.3261C305.119 85.8119 305.235 85.1997 305.235 84.4894C305.235 83.7849 305.12 83.1784 304.89 82.6698C304.66 82.1585 304.316 81.7664 303.859 81.4937C303.401 81.2181 302.832 81.0803 302.15 81.0803H300.462V87.9326ZM315.394 84.5065C315.394 85.4269 315.228 86.2224 314.896 86.8928C314.563 87.5633 314.107 88.0803 313.528 88.444C312.948 88.8076 312.286 88.9894 311.542 88.9894C310.797 88.9894 310.136 88.8076 309.556 88.444C308.976 88.0803 308.521 87.5633 308.188 86.8928C307.856 86.2224 307.69 85.4269 307.69 84.5065C307.69 83.586 307.856 82.7906 308.188 82.1201C308.521 81.4497 308.976 80.9326 309.556 80.569C310.136 80.2053 310.797 80.0235 311.542 80.0235C312.286 80.0235 312.948 80.2053 313.528 80.569C314.107 80.9326 314.563 81.4497 314.896 82.1201C315.228 82.7906 315.394 83.586 315.394 84.5065ZM314.371 84.5065C314.371 83.7508 314.245 83.113 313.992 82.5931C313.742 82.0732 313.403 81.6798 312.974 81.4127C312.547 81.1457 312.07 81.0122 311.542 81.0122C311.013 81.0122 310.535 81.1457 310.106 81.4127C309.68 81.6798 309.34 82.0732 309.087 82.5931C308.837 83.113 308.712 83.7508 308.712 84.5065C308.712 85.2622 308.837 85.8999 309.087 86.4198C309.34 86.9397 309.68 87.3332 310.106 87.6002C310.535 87.8673 311.013 88.0008 311.542 88.0008C312.07 88.0008 312.547 87.8673 312.974 87.6002C313.403 87.3332 313.742 86.9397 313.992 86.4198C314.245 85.8999 314.371 85.2622 314.371 84.5065ZM324.194 82.8701H323.137C323.074 82.5661 322.965 82.2991 322.809 82.069C322.655 81.8389 322.468 81.6457 322.246 81.4894C322.028 81.3303 321.785 81.211 321.518 81.1315C321.251 81.0519 320.972 81.0122 320.682 81.0122C320.154 81.0122 319.675 81.1457 319.246 81.4127C318.82 81.6798 318.481 82.0732 318.228 82.5931C317.978 83.113 317.853 83.7508 317.853 84.5065C317.853 85.2622 317.978 85.8999 318.228 86.4198C318.481 86.9397 318.82 87.3332 319.246 87.6002C319.675 87.8673 320.154 88.0008 320.682 88.0008C320.972 88.0008 321.251 87.961 321.518 87.8815C321.785 87.8019 322.028 87.684 322.246 87.5278C322.468 87.3687 322.655 87.1741 322.809 86.944C322.965 86.711 323.074 86.444 323.137 86.1428H324.194C324.114 86.5889 323.969 86.988 323.759 87.3403C323.549 87.6926 323.288 87.9923 322.975 88.2394C322.663 88.4838 322.312 88.6698 321.922 88.7977C321.536 88.9255 321.123 88.9894 320.682 88.9894C319.938 88.9894 319.276 88.8076 318.697 88.444C318.117 88.0803 317.661 87.5633 317.329 86.8928C316.996 86.2224 316.83 85.4269 316.83 84.5065C316.83 83.586 316.996 82.7906 317.329 82.1201C317.661 81.4497 318.117 80.9326 318.697 80.569C319.276 80.2053 319.938 80.0235 320.682 80.0235C321.123 80.0235 321.536 80.0874 321.922 80.2153C322.312 80.3431 322.663 80.5306 322.975 80.7778C323.288 81.0221 323.549 81.3204 323.759 81.6727C323.969 82.0221 324.114 82.4213 324.194 82.8701ZM325.424 81.0803V80.1428H331.97V81.0803H329.225V88.8701H328.169V81.0803H325.424ZM340.601 84.5065C340.601 85.4269 340.435 86.2224 340.103 86.8928C339.77 87.5633 339.314 88.0803 338.735 88.444C338.155 88.8076 337.493 88.9894 336.749 88.9894C336.005 88.9894 335.343 88.8076 334.763 88.444C334.184 88.0803 333.728 87.5633 333.395 86.8928C333.063 86.2224 332.897 85.4269 332.897 84.5065C332.897 83.586 333.063 82.7906 333.395 82.1201C333.728 81.4497 334.184 80.9326 334.763 80.569C335.343 80.2053 336.005 80.0235 336.749 80.0235C337.493 80.0235 338.155 80.2053 338.735 80.569C339.314 80.9326 339.77 81.4497 340.103 82.1201C340.435 82.7906 340.601 83.586 340.601 84.5065ZM339.578 84.5065C339.578 83.7508 339.452 83.113 339.199 82.5931C338.949 82.0732 338.61 81.6798 338.181 81.4127C337.755 81.1457 337.277 81.0122 336.749 81.0122C336.22 81.0122 335.742 81.1457 335.313 81.4127C334.887 81.6798 334.547 82.0732 334.294 82.5931C334.044 83.113 333.919 83.7508 333.919 84.5065C333.919 85.2622 334.044 85.8999 334.294 86.4198C334.547 86.9397 334.887 87.3332 335.313 87.6002C335.742 87.8673 336.22 88.0008 336.749 88.0008C337.277 88.0008 337.755 87.8673 338.181 87.6002C338.61 87.3332 338.949 86.9397 339.199 86.4198C339.452 85.8999 339.578 85.2622 339.578 84.5065ZM342.378 88.8701V80.1428H345.327C346.009 80.1428 346.568 80.2593 347.006 80.4923C347.443 80.7224 347.767 81.0392 347.978 81.4426C348.188 81.846 348.293 82.3048 348.293 82.819C348.293 83.3332 348.188 83.7892 347.978 84.1869C347.767 84.5846 347.445 84.8971 347.01 85.1244C346.576 85.3488 346.02 85.461 345.344 85.461H342.958V84.5065H345.31C345.776 84.5065 346.151 84.4383 346.435 84.3019C346.722 84.1656 346.929 83.9724 347.057 83.7224C347.188 83.4695 347.253 83.1684 347.253 82.819C347.253 82.4695 347.188 82.1642 347.057 81.9028C346.926 81.6414 346.718 81.4397 346.431 81.2977C346.144 81.1528 345.764 81.0803 345.293 81.0803H343.435V88.8701H342.378ZM346.486 84.9497L348.634 88.8701H347.407L345.293 84.9497H346.486Z" fill="white"/>
<path d="M356.043 917.336C355.649 917.336 355.256 917.336 354.863 917.926C354.666 918.319 354.47 918.712 354.47 919.499V924.217C353.88 923.627 353.29 923.037 352.7 922.841C352.111 922.448 351.324 922.448 350.341 922.448C348.768 922.448 347.392 923.037 346.409 924.02C345.426 925.2 345.033 926.773 345.033 928.739C345.033 930.705 345.033 930.508 345.426 931.295C345.819 932.081 346.016 932.867 346.409 933.457C346.802 934.047 347.392 934.44 348.179 934.833C348.768 935.227 349.555 935.227 350.341 935.227C351.128 935.227 351.521 935.227 351.914 935.03C352.307 935.03 352.897 934.637 353.29 934.244C353.683 933.85 354.077 933.457 354.47 933.064V933.457C354.47 934.047 354.47 934.44 354.863 934.833C355.06 935.227 355.453 935.227 355.846 935.227C356.239 935.227 356.632 935.227 357.026 934.833C357.222 934.44 357.419 934.047 357.419 933.457V919.499C357.419 918.909 357.419 918.516 357.026 918.122C356.829 917.729 356.436 917.729 355.846 917.729L356.043 917.336ZM353.88 930.901C353.683 931.491 353.29 931.884 352.7 932.278C352.307 932.474 351.717 932.671 351.128 932.671C350.538 932.671 350.145 932.671 349.555 932.278C349.162 931.884 348.768 931.491 348.375 930.901C348.179 930.312 347.982 929.525 347.982 928.739C347.982 927.952 347.982 927.166 348.375 926.576C348.572 925.986 348.965 925.397 349.358 925.2C349.751 924.807 350.341 924.61 350.931 924.61C351.521 924.61 351.914 924.61 352.504 925.003C352.897 925.397 353.29 925.79 353.683 926.38C353.88 926.969 354.077 927.756 354.077 928.542C354.077 929.525 354.077 930.115 353.683 930.705L353.88 930.901Z" fill="white"/>
<path d="M370.591 929.132C370.984 928.935 371.377 928.346 371.377 927.559C371.377 926.773 371.181 925.79 370.788 925.003C370.394 924.217 369.608 923.431 368.822 923.037C367.839 922.448 366.856 922.251 365.676 922.251C364.496 922.251 363.907 922.251 363.12 922.644C362.334 923.037 361.744 923.431 361.154 924.02C360.564 924.61 360.171 925.2 359.975 926.183C359.778 926.969 359.581 927.952 359.581 928.739C359.581 930.705 360.171 932.278 361.351 933.457C362.53 934.637 364.103 935.227 366.069 935.227C368.035 935.227 367.838 935.227 368.428 934.833C369.215 934.637 369.608 934.244 370.198 934.047C370.788 933.85 370.984 933.261 371.181 932.867C371.377 932.474 371.574 932.081 371.574 931.884C371.574 931.688 371.574 931.295 371.181 931.098C370.984 931.098 370.787 930.901 370.394 930.901C370.001 930.901 369.805 930.901 369.608 931.098C369.215 931.491 368.822 931.688 368.625 932.081C368.428 932.474 368.035 932.474 367.839 932.671C367.642 932.671 367.249 933.064 366.856 933.064C366.462 933.064 366.266 933.064 365.873 933.064C365.283 933.064 364.693 933.064 364.3 932.671C363.907 932.474 363.513 931.884 363.12 931.491C362.924 930.901 362.727 930.312 362.727 929.525H369.018C369.805 929.525 370.591 929.525 370.984 929.132H370.591ZM362.334 927.559C362.334 926.576 362.727 925.593 363.317 925.2C363.907 924.61 364.496 924.414 365.283 924.414C366.069 924.414 366.856 924.61 367.249 925.2C367.839 925.79 368.035 926.576 368.035 927.559H362.334Z" fill="white"/>
<path d="M381.207 928.149C380.617 927.756 379.831 927.559 378.848 927.363C378.062 927.166 377.275 926.969 376.882 926.773C376.489 926.773 376.096 926.38 375.702 926.183C375.506 925.986 375.309 925.79 375.309 925.397C375.309 925.003 375.309 924.807 375.899 924.414C376.292 924.217 376.685 924.02 377.275 924.02C377.865 924.02 378.258 924.02 378.651 924.217C379.045 924.414 379.241 924.61 379.438 925.003C379.831 925.397 380.028 925.593 380.224 925.79C380.421 925.79 380.814 925.986 381.011 925.986C381.207 925.986 381.797 925.986 381.994 925.593C382.19 925.397 382.387 925.003 382.387 924.61C382.387 924.217 382.387 924.02 381.994 923.627C381.797 923.234 381.404 923.037 381.011 922.644C380.617 922.448 380.028 922.054 379.438 921.858C378.848 921.858 378.062 921.661 377.275 921.661C376.489 921.661 375.309 921.661 374.523 922.251C373.736 922.644 373.147 923.037 372.753 923.627C372.36 924.217 372.164 924.807 372.164 925.397C372.164 925.986 372.36 926.773 372.753 927.166C373.147 927.559 373.736 928.149 374.326 928.346C375.113 928.739 375.899 928.935 377.079 929.132C378.062 929.329 378.651 929.525 379.241 929.918C379.634 930.115 379.831 930.508 379.831 931.098C379.831 931.688 379.634 931.884 379.241 932.081C378.848 932.278 378.258 932.474 377.668 932.474C377.079 932.474 376.292 932.474 375.899 932.081C375.506 931.884 375.113 931.295 374.719 930.901C374.719 930.705 374.326 930.312 374.13 930.115C374.13 930.115 373.736 929.918 373.343 929.918C372.95 929.918 372.557 929.918 372.36 930.312C372.164 930.508 371.967 930.901 371.967 931.295C371.967 931.884 371.967 932.278 372.557 932.867C372.95 933.457 373.54 933.85 374.326 934.244C375.113 934.637 376.096 934.833 377.275 934.833C378.455 934.833 379.438 934.833 380.421 934.44C381.404 934.047 381.797 933.654 382.387 933.064C382.78 932.474 382.977 931.688 382.977 930.901C382.977 930.115 382.977 929.722 382.583 929.329C382.19 928.935 381.797 928.542 381.207 928.149Z" fill="white"/>
<path d="M386.319 922.055C385.926 922.055 385.532 922.055 385.139 922.448C384.943 922.841 384.746 923.234 384.746 923.824V932.868C384.746 933.457 384.746 934.047 385.139 934.244C385.336 934.637 385.729 934.834 386.319 934.834C386.909 934.834 387.105 934.834 387.499 934.44C387.892 934.047 387.892 933.654 387.892 933.064V923.824C387.892 923.234 387.892 922.841 387.499 922.448C387.105 922.055 386.909 922.055 386.319 922.055Z" fill="white"/>
<path d="M386.319 917.532C385.926 917.532 385.532 917.532 385.139 917.925C384.746 918.122 384.746 918.515 384.746 919.105C384.746 919.695 384.746 920.088 385.139 920.285C385.532 920.481 385.926 920.678 386.319 920.678C386.712 920.678 387.105 920.678 387.499 920.285C387.892 920.088 387.892 919.695 387.892 919.105C387.892 918.515 387.892 918.122 387.499 917.925C387.105 917.729 386.909 917.532 386.319 917.532Z" fill="white"/>
<path d="M400.278 922.055C399.884 922.055 399.491 922.055 399.295 922.448C399.098 922.841 398.901 923.234 398.901 923.824V924.217C398.312 923.431 397.722 922.841 397.132 922.644C396.542 922.251 395.756 922.055 394.773 922.055C393.79 922.055 393.397 922.055 392.61 922.448C392.02 922.645 391.431 923.038 391.037 923.627C390.644 924.217 390.251 924.807 389.858 925.593C389.661 926.38 389.465 927.166 389.465 928.149C389.465 929.132 389.661 930.508 390.054 931.491C390.448 932.474 391.037 933.261 391.824 933.851C392.61 934.44 393.593 934.637 394.576 934.637C395.559 934.637 396.149 934.637 396.935 934.047C397.525 933.654 398.115 933.261 398.705 932.474C398.705 933.457 398.705 934.244 398.705 934.834C398.705 935.227 398.705 935.817 398.312 936.21C398.312 936.603 397.722 936.996 397.329 937.193C396.935 937.39 396.149 937.586 395.363 937.586C394.576 937.586 394.576 937.586 394.38 937.586C393.986 937.586 393.79 937.586 393.593 937.193C393.397 937.193 393.2 936.8 393.003 936.603C393.003 936.406 392.61 936.21 392.414 936.013C392.02 935.62 391.627 935.423 391.234 935.423C390.841 935.423 390.448 935.423 390.251 935.817C390.054 936.013 389.858 936.406 389.858 936.8C389.858 937.193 390.054 937.783 390.644 938.372C391.037 938.766 391.824 939.159 392.61 939.552C393.397 939.945 394.38 939.945 395.559 939.945C396.739 939.945 397.722 939.945 398.508 939.552C399.295 939.355 399.884 938.962 400.474 938.372C401.064 937.783 401.261 937.193 401.654 936.406C401.85 935.62 402.047 934.637 402.047 933.654V924.414C402.047 923.628 402.047 923.038 401.654 922.644C401.457 922.251 401.064 922.055 400.474 922.055H400.278ZM398.312 930.705C397.918 931.295 397.722 931.688 397.132 932.081C396.739 932.278 396.149 932.474 395.559 932.474C394.576 932.474 393.986 932.081 393.397 931.491C392.807 930.902 392.61 929.919 392.61 928.542C392.61 927.166 392.807 926.38 393.397 925.593C393.986 924.807 394.576 924.61 395.559 924.61C396.542 924.61 397.329 925.004 397.722 925.79C398.312 926.576 398.508 927.559 398.508 928.739C398.508 929.525 398.508 930.312 398.115 930.902L398.312 930.705Z" fill="white"/>
<path d="M414.826 924.217C414.433 923.627 414.04 923.038 413.253 922.644C412.663 922.251 411.877 922.055 411.091 922.055C410.304 922.055 409.518 922.055 408.731 922.644C408.142 923.038 407.552 923.627 406.962 924.217V923.824C406.962 923.431 406.962 923.038 406.765 922.841C406.765 922.644 406.372 922.448 406.176 922.251C405.979 922.251 405.782 922.055 405.389 922.055C404.996 922.055 404.603 922.055 404.21 922.448C404.013 922.841 403.816 923.234 403.816 923.824V933.064C403.816 933.654 403.816 934.244 404.21 934.44C404.603 934.637 404.799 935.03 405.389 935.03C405.979 935.03 406.176 935.03 406.569 934.637C406.962 934.244 406.962 933.851 406.962 933.261V929.329C406.962 927.953 406.962 927.166 407.159 926.576C407.355 925.987 407.748 925.593 408.142 925.2C408.535 924.807 409.125 924.61 409.714 924.61C410.501 924.61 411.091 924.807 411.484 925.397C411.877 925.987 411.877 926.773 411.877 927.756V933.064C411.877 933.654 411.877 934.244 412.27 934.44C412.467 934.834 412.86 935.03 413.45 935.03C414.04 935.03 414.236 935.03 414.629 934.637C414.826 934.244 415.023 933.851 415.023 933.261V927.363C415.023 926.577 415.023 926.183 415.023 925.593C415.023 925.2 415.023 924.807 414.629 924.414L414.826 924.217Z" fill="white"/>
<path d="M428.195 929.132C428.588 928.935 428.981 928.346 428.981 927.559C428.981 926.773 428.784 925.79 428.391 925.003C427.998 924.217 427.212 923.431 426.425 923.037C425.442 922.448 424.459 922.251 423.28 922.251C422.1 922.251 421.51 922.251 420.724 922.644C419.937 923.037 419.348 923.431 418.758 924.02C418.168 924.61 417.775 925.2 417.578 926.183C417.382 926.969 417.185 927.952 417.185 928.739C417.185 930.705 417.775 932.278 418.954 933.457C420.134 934.637 421.707 935.227 423.673 935.227C425.639 935.227 425.442 935.227 426.032 934.833C426.818 934.637 427.212 934.244 427.801 934.047C428.195 933.654 428.588 933.261 428.784 932.867C428.981 932.474 429.178 932.081 429.178 931.884C429.178 931.688 429.178 931.295 428.784 931.098C428.588 931.098 428.391 930.901 427.998 930.901C427.605 930.901 427.408 930.901 427.212 931.098C426.818 931.491 426.425 931.688 426.229 932.081C426.032 932.278 425.639 932.474 425.442 932.671C425.049 932.671 424.852 933.064 424.459 933.064C424.066 933.064 423.869 933.064 423.476 933.064C422.886 933.064 422.297 933.064 421.903 932.671C421.51 932.474 421.117 931.884 420.724 931.491C420.331 931.098 420.331 930.312 420.331 929.525H426.622C427.408 929.525 428.195 929.525 428.588 929.132H428.195ZM420.134 927.559C420.134 926.576 420.527 925.593 421.117 925.2C421.707 924.61 422.297 924.414 423.083 924.414C423.869 924.414 424.656 924.61 425.049 925.2C425.442 925.79 425.835 926.576 425.835 927.559H420.134Z" fill="white"/>
<path d="M440.777 917.336C440.384 917.336 439.991 917.336 439.598 917.926C439.401 918.319 439.204 918.712 439.204 919.499V924.217C438.615 923.627 438.025 923.037 437.435 922.841C436.845 922.448 436.059 922.448 435.076 922.448C433.503 922.448 432.127 923.037 431.144 924.02C430.161 925.2 429.768 926.773 429.768 928.739C429.768 930.705 429.768 930.508 430.161 931.295C430.357 932.081 430.751 932.867 431.144 933.457C431.537 934.047 432.127 934.44 432.913 934.833C433.503 935.227 434.289 935.227 435.076 935.227C435.862 935.227 436.255 935.227 436.649 935.03C437.042 935.03 437.632 934.637 438.025 934.244C438.418 933.85 438.811 933.457 439.204 933.064V933.457C439.204 934.047 439.204 934.44 439.598 934.833C439.794 935.227 440.187 935.227 440.581 935.227C440.974 935.227 441.367 935.227 441.76 934.833C441.957 934.44 442.153 934.047 442.153 933.457V919.499C442.153 918.909 442.153 918.516 441.76 918.122C441.564 917.729 441.17 917.729 440.581 917.729L440.777 917.336ZM438.615 930.901C438.418 931.491 438.025 931.884 437.435 932.278C437.042 932.474 436.452 932.671 435.862 932.671C435.272 932.671 434.879 932.671 434.289 932.278C433.896 931.884 433.503 931.491 433.11 930.901C432.913 930.312 432.717 929.525 432.717 928.739C432.717 927.952 432.717 927.166 433.11 926.576C433.503 925.986 433.7 925.397 434.093 925.2C434.486 925.003 435.076 924.61 435.666 924.61C436.255 924.61 436.649 924.61 437.238 925.003C437.632 925.397 438.025 925.79 438.418 926.38C438.615 926.969 438.811 927.756 438.811 928.542C438.811 929.525 438.811 930.115 438.418 930.705L438.615 930.901Z" fill="white"/>
<path d="M459.258 922.841C458.471 922.251 457.488 922.054 456.505 922.054C455.522 922.054 454.736 922.054 454.146 922.644C453.556 923.037 452.966 923.431 452.377 924.02V919.105C452.377 918.516 452.377 918.122 451.983 917.729C451.787 917.336 451.394 917.336 450.804 917.336C450.214 917.336 450.017 917.336 449.624 917.926C449.428 918.319 449.231 918.712 449.231 919.302V933.261C449.231 933.85 449.231 934.244 449.624 934.637C449.821 935.03 450.214 935.03 450.607 935.03C451 935.03 451.394 935.03 451.787 934.637C451.983 934.244 452.18 933.85 452.18 933.261V932.867C452.573 933.261 452.77 933.654 452.966 933.85C453.163 934.047 453.36 934.244 453.753 934.44C454.146 934.44 454.343 934.833 454.932 934.833C455.326 934.833 455.915 934.833 456.309 934.833C457.095 934.833 457.881 934.833 458.471 934.44C459.061 934.047 459.651 933.654 460.241 933.064C460.634 932.474 461.027 931.688 461.224 930.901C461.42 930.115 461.617 929.132 461.617 928.149C461.617 927.166 461.42 925.79 461.027 924.807C460.634 923.824 460.044 923.037 459.258 922.644V922.841ZM457.685 931.491C457.095 932.278 456.505 932.474 455.522 932.474C454.539 932.474 453.753 932.081 453.163 931.491C452.573 930.901 452.377 929.918 452.377 928.542C452.377 927.166 452.377 926.969 452.77 926.38C452.966 925.79 453.36 925.2 453.949 925.003C454.343 924.61 454.932 924.414 455.522 924.414C456.112 924.414 456.702 924.414 457.095 925.003C457.488 925.397 457.881 925.79 458.078 926.38C458.275 926.969 458.471 927.756 458.471 928.542C458.471 929.918 458.275 930.901 457.685 931.491Z" fill="white"/>
<path d="M472.823 922.251C472.626 922.251 472.43 922.251 472.037 922.251C471.643 922.251 471.447 922.251 471.25 922.251C471.25 922.251 470.857 922.644 470.66 922.841C470.66 923.234 470.267 923.627 470.071 924.217L467.515 931.491L464.762 923.627C464.762 923.038 464.369 922.645 464.173 922.448C463.976 922.251 463.583 922.055 463.19 922.055C462.796 922.055 462.6 922.055 462.403 922.251C462.207 922.251 462.01 922.644 461.813 922.841C461.813 923.038 461.617 923.234 461.617 923.627C461.617 924.021 461.617 924.217 462.01 924.807L465.942 934.637V935.423C465.352 936.013 465.156 936.406 465.156 936.603C465.156 936.8 464.762 936.996 464.566 937.193C464.369 937.193 463.976 937.193 463.779 937.193C463.583 937.193 463.386 937.193 463.19 937.193C463.19 937.193 462.796 937.193 462.6 937.193C462.207 937.193 461.813 937.193 461.617 937.586C461.42 937.783 461.224 937.979 461.224 938.372C461.224 938.962 461.42 939.355 462.01 939.552C462.403 939.749 463.19 939.945 464.173 939.945C465.156 939.945 465.942 939.945 466.532 939.552C467.122 939.355 467.515 938.766 467.908 938.372C468.301 937.783 468.694 936.996 468.891 936.21L473.02 925.397C473.02 925.2 473.02 924.807 473.216 924.61C473.216 924.414 473.216 924.217 473.216 924.021C473.216 923.824 473.216 923.627 473.216 923.234C473.216 923.038 473.02 922.841 472.626 922.644L472.823 922.251Z" fill="white"/>
<path d="M516.861 917.335C515.878 917.335 514.895 917.335 514.306 917.728C513.716 917.925 513.323 918.515 512.929 919.105C512.733 919.694 512.536 920.481 512.536 921.464V922.447H511.75C510.767 922.447 510.177 922.84 510.177 923.626C510.177 924.413 510.177 924.216 510.57 924.413C510.767 924.609 511.16 924.806 511.75 924.806H512.536V933.26C512.536 933.85 512.536 934.439 512.929 934.636C513.323 935.029 513.519 935.226 514.109 935.226C514.699 935.226 514.895 935.226 515.289 934.636C515.682 934.243 515.682 933.85 515.682 933.26V924.806H516.468C517.058 924.806 517.451 924.806 517.844 924.609C518.238 924.609 518.238 924.216 518.238 923.626C518.238 922.84 517.648 922.447 516.468 922.447H515.682V921.66C515.682 921.071 515.682 920.481 515.878 920.284C515.878 919.891 516.468 919.694 517.058 919.694C517.648 919.694 517.451 919.694 517.844 919.694C518.238 919.694 518.434 919.694 518.434 919.694C518.631 919.694 519.024 919.694 519.024 919.301C519.221 919.105 519.221 918.908 519.221 918.515C519.221 917.532 518.238 917.139 516.468 917.139L516.861 917.335Z" fill="white"/>
<path d="M527.085 922.643C526.495 922.25 525.905 922.054 525.119 922.054C524.332 922.054 523.939 922.054 523.546 922.643C523.153 923.037 522.76 923.43 522.366 924.216C522.366 923.627 522.366 923.037 521.973 922.643C521.776 922.25 521.383 922.054 520.793 922.054C519.81 922.054 519.221 922.84 519.221 924.216V933.063C519.221 933.653 519.221 934.243 519.614 934.439C519.81 934.833 520.204 934.833 520.793 934.833C521.383 934.833 521.58 934.833 521.973 934.439C522.366 934.046 522.366 933.653 522.366 933.063V930.311C522.366 929.328 522.366 928.542 522.366 927.952C522.366 927.362 522.366 926.772 522.759 926.182C522.759 925.789 523.153 925.396 523.546 925.003C523.742 924.806 524.136 924.609 524.725 924.609C525.315 924.609 525.512 924.609 525.905 924.806C526.298 924.806 526.691 925.003 526.691 925.003C527.085 925.003 527.281 925.003 527.478 924.609C527.674 924.413 527.871 924.02 527.871 923.626C527.871 923.037 527.478 922.644 526.888 922.25L527.085 922.643Z" fill="white"/>
<path d="M539.077 928.935C539.47 928.738 539.864 928.148 539.864 927.362C539.864 926.576 539.667 925.592 539.274 924.806C538.881 924.02 538.094 923.233 537.308 922.84C536.325 922.25 535.342 922.054 534.162 922.054C532.983 922.054 532.393 922.054 531.606 922.447C530.82 922.84 530.23 923.233 529.64 923.823C529.051 924.413 528.657 925.003 528.461 925.986C528.264 926.772 528.068 927.755 528.068 928.541C528.068 930.507 528.657 932.08 529.837 933.26C531.017 934.44 532.589 935.029 534.555 935.029C536.521 935.029 536.325 935.029 536.915 934.636C537.504 934.439 538.094 934.046 538.684 933.85C539.077 933.457 539.47 933.063 539.667 932.67C539.864 932.277 540.06 931.884 540.06 931.687C540.06 931.49 540.06 931.097 539.667 930.901C539.47 930.901 539.274 930.704 538.881 930.704C538.487 930.704 538.291 930.704 538.094 930.901C537.701 931.294 537.308 931.49 537.111 931.687C536.915 931.884 536.521 932.08 536.325 932.277C536.128 932.277 535.735 932.67 535.342 932.67C534.949 932.67 534.752 932.67 534.359 932.67C533.769 932.67 533.179 932.67 532.786 932.277C532.393 932.08 532 931.491 531.606 931.097C531.41 930.508 531.213 929.918 531.213 929.131H537.504C538.291 929.131 539.077 929.131 539.47 928.738L539.077 928.935ZM530.82 927.558C530.82 926.575 531.213 925.593 531.803 925.199C532.393 924.61 532.983 924.413 533.769 924.413C534.555 924.413 535.342 924.61 535.735 925.199C536.325 925.789 536.521 926.575 536.521 927.558H530.82Z" fill="white"/>
<path d="M552.249 928.935C552.643 928.738 553.036 928.148 553.036 927.362C553.036 926.576 552.839 925.592 552.446 924.806C552.053 924.02 551.266 923.233 550.48 922.84C549.497 922.25 548.514 922.054 547.334 922.054C546.155 922.054 545.565 922.054 544.779 922.447C543.992 922.84 543.402 923.233 542.813 923.823C542.223 924.413 541.83 925.003 541.633 925.986C541.436 926.772 541.24 927.755 541.24 928.541C541.24 930.507 541.83 932.08 543.009 933.26C544.189 934.44 545.762 935.029 547.728 935.029C549.694 935.029 549.497 935.029 550.087 934.636C550.677 934.439 551.266 934.046 551.856 933.85C552.249 933.457 552.643 933.063 552.839 932.67C553.036 932.277 553.232 931.884 553.232 931.687C553.232 931.49 553.232 931.097 553.036 930.901C552.839 930.901 552.643 930.704 552.249 930.704C551.856 930.704 551.66 930.704 551.463 930.901C551.07 931.294 550.677 931.49 550.48 931.687C550.283 931.884 549.89 932.08 549.694 932.277C549.3 932.277 549.104 932.67 548.711 932.67C548.317 932.67 548.121 932.67 547.728 932.67C547.138 932.67 546.548 932.67 546.155 932.277C545.762 932.08 545.368 931.491 544.975 931.097C544.779 930.508 544.582 929.918 544.582 929.131H550.873C551.66 929.131 552.446 929.131 552.839 928.738L552.249 928.935ZM544.189 927.558C544.189 926.575 544.582 925.593 545.172 925.199C545.762 924.61 546.351 924.413 547.138 924.413C547.924 924.413 548.711 924.61 549.104 925.199C549.694 925.789 549.89 926.575 549.89 927.558H544.189Z" fill="white"/>
<path d="M564.045 922.84C563.259 922.25 562.276 922.054 561.293 922.054C560.31 922.054 559.72 922.054 559.13 922.643C558.541 923.037 557.951 923.627 557.164 924.216V923.823C557.164 923.233 557.164 922.84 556.771 922.447C556.575 922.054 556.181 922.054 555.592 922.054C555.002 922.054 554.805 922.054 554.412 922.447C554.215 922.84 554.019 923.233 554.019 923.823V937.585C554.019 938.371 554.019 938.765 554.215 939.158C554.412 939.551 554.805 939.748 555.395 939.748C556.378 939.748 556.968 938.961 556.968 937.585V932.867C557.558 933.653 558.147 934.046 558.737 934.439C559.327 934.833 560.113 935.029 561.096 935.029C562.079 935.029 562.473 935.029 563.259 934.636C563.849 934.243 564.439 933.85 565.028 933.26C565.422 932.67 565.815 932.08 566.208 931.294C566.405 930.508 566.601 929.524 566.601 928.541C566.601 927.558 566.405 925.986 565.815 925.003C565.422 924.02 564.635 923.233 563.849 922.84H564.045ZM563.259 930.704C563.062 931.294 562.669 931.687 562.079 932.08C561.686 932.474 561.096 932.473 560.703 932.473C559.72 932.473 559.13 932.08 558.541 931.49C557.951 930.704 557.558 929.721 557.558 928.541C557.558 927.362 557.951 926.182 558.541 925.396C559.13 924.61 559.917 924.413 560.703 924.413C561.49 924.413 561.686 924.413 562.276 924.806C562.669 925.199 563.062 925.593 563.259 926.182C563.456 926.772 563.652 927.559 563.652 928.345C563.652 929.131 563.652 929.918 563.259 930.507V930.704Z" fill="white"/>
<path d="M569.943 922.054C569.55 922.054 569.157 922.054 568.764 922.447C568.567 922.84 568.371 923.233 568.371 923.823V932.867C568.371 933.457 568.371 934.046 568.764 934.243C569.157 934.636 569.354 934.833 569.943 934.833C570.533 934.833 570.73 934.833 571.123 934.439C571.516 934.046 571.516 933.653 571.516 933.063V923.823C571.516 923.233 571.516 922.84 571.123 922.447C570.73 922.054 570.337 922.054 569.943 922.054Z" fill="white"/>
<path d="M569.943 917.532C569.55 917.532 569.157 917.532 568.764 917.925C568.371 918.122 568.371 918.515 568.371 919.105C568.371 919.695 568.371 919.891 568.764 920.285C569.157 920.481 569.55 920.678 569.943 920.678C570.337 920.678 570.73 920.678 571.123 920.285C571.516 920.088 571.516 919.695 571.516 919.105C571.516 918.515 571.516 918.122 571.123 917.925C570.73 917.729 570.533 917.532 569.943 917.532Z" fill="white"/>
<path d="M584.492 932.08L581.15 926.969L582.919 925.396C583.706 924.609 584.295 924.02 584.295 923.43C584.295 922.84 584.295 922.643 583.902 922.447C583.706 922.25 583.312 922.054 582.919 922.054C582.526 922.054 582.329 922.054 582.133 922.25C581.936 922.25 581.543 922.84 581.15 923.233L577.611 926.969V919.301C577.611 918.711 577.611 918.122 577.218 917.728C577.021 917.335 576.628 917.139 576.038 917.139C575.448 917.139 575.055 917.139 574.858 917.728C574.662 918.122 574.465 918.711 574.465 919.301V932.867C574.465 933.456 574.465 934.046 574.858 934.243C575.055 934.636 575.448 934.636 576.038 934.636C576.628 934.636 576.825 934.636 577.218 934.046C577.611 933.653 577.611 933.26 577.611 932.67V930.114L579.38 928.541L582.133 933.26C582.526 933.85 582.723 934.243 582.919 934.439C583.116 934.636 583.509 934.833 583.902 934.833C584.295 934.833 584.689 934.833 585.082 934.439C585.278 934.046 585.475 933.653 585.475 933.26C585.475 932.867 585.475 932.867 585.475 932.67C585.475 932.67 585.278 932.277 584.885 931.884L584.492 932.08Z" fill="white"/>
<path d="M588.817 931.49C588.424 931.49 587.834 931.49 587.637 932.08C587.244 932.473 587.048 932.866 587.048 933.26C587.048 933.653 587.048 934.243 587.637 934.636C588.031 935.029 588.424 935.029 588.817 935.029C589.21 935.029 589.603 935.029 589.997 934.636C590.39 934.243 590.586 933.849 590.586 933.26C590.586 932.67 590.586 932.277 589.997 932.08C589.603 931.687 589.21 931.49 588.817 931.49Z" fill="white"/>
<path d="M603.169 929.721C602.776 929.721 602.579 929.721 602.382 930.114C602.186 930.311 601.989 930.508 601.793 930.901C601.399 931.491 601.006 931.884 600.613 932.277C600.22 932.474 599.63 932.67 599.04 932.67C598.45 932.67 598.057 932.67 597.664 932.473C597.271 932.473 596.878 932.08 596.681 931.687C596.484 931.294 596.091 930.901 596.091 930.311C596.091 929.721 595.895 929.328 595.895 928.738C595.895 927.558 596.091 926.379 596.681 925.789C597.271 925.003 598.057 924.609 599.04 924.609C600.023 924.609 600.22 924.61 600.613 925.003C601.006 925.199 601.399 925.789 601.793 926.379C601.989 926.772 602.186 926.969 602.382 926.969C602.382 926.969 602.776 927.165 602.972 927.165C603.365 927.165 603.759 927.165 603.955 926.772C604.152 926.575 604.348 926.182 604.348 925.789C604.348 925.396 604.348 925.003 603.955 924.609C603.759 924.216 603.365 923.823 602.776 923.43C602.382 923.037 601.793 922.644 601.006 922.447C600.22 922.25 599.63 922.054 598.647 922.054C597.271 922.054 596.091 922.25 595.305 922.84C594.322 923.43 593.535 924.216 593.142 925.199C592.552 926.182 592.356 927.362 592.356 928.738C592.356 930.704 592.946 932.277 593.929 933.26C595.108 934.44 596.484 935.029 598.45 935.029C600.416 935.029 600.22 935.029 601.006 934.636C601.793 934.439 602.382 934.046 602.776 933.653C603.169 933.26 603.562 932.867 603.955 932.277C604.152 931.884 604.348 931.491 604.348 931.097C604.348 930.704 604.348 930.508 603.955 930.114C603.759 929.721 603.365 929.721 602.972 929.721H603.169Z" fill="white"/>
<path d="M616.538 924.019C615.948 923.43 615.358 923.036 614.572 922.643C613.785 922.25 612.999 922.25 612.016 922.25C611.033 922.25 610.246 922.25 609.46 922.643C608.674 923.036 608.084 923.43 607.494 924.019C606.904 924.609 606.511 925.199 606.314 925.985C606.118 926.772 605.921 927.755 605.921 928.541C605.921 929.328 605.921 930.311 606.314 931.097C606.708 931.883 607.101 932.67 607.691 933.063C608.28 933.653 608.87 934.046 609.657 934.439C610.443 934.832 611.229 934.832 612.212 934.832C613.195 934.832 613.982 934.832 614.768 934.439C615.555 934.046 616.144 933.653 616.734 933.063C617.324 932.473 617.717 931.883 618.11 931.097C618.307 930.311 618.504 929.328 618.504 928.541C618.504 927.755 618.504 926.772 618.11 925.985C617.914 925.199 617.324 924.609 616.931 924.019H616.538ZM614.375 931.687C613.785 932.473 612.999 932.866 612.016 932.866C611.033 932.866 610.836 932.866 610.443 932.277C610.05 931.883 609.657 931.49 609.263 930.9C609.067 930.311 608.87 929.524 608.87 928.738C608.87 927.951 608.87 927.165 609.263 926.575C609.46 925.985 609.853 925.396 610.443 925.199C611.033 925.002 611.426 924.806 612.016 924.806C612.999 924.806 613.785 925.199 614.375 925.985C614.965 926.772 615.161 927.755 615.161 928.934C615.161 930.311 614.965 931.294 614.375 931.883V931.687Z" fill="white"/>
<path d="M636.198 922.644C635.608 922.251 634.822 922.054 634.035 922.054C633.249 922.054 632.659 922.054 632.069 922.447C631.479 922.84 630.89 923.234 630.3 923.823C629.907 923.234 629.513 922.644 628.923 922.447C628.334 922.054 627.744 922.054 626.957 922.054C626.171 922.054 625.581 922.054 624.795 922.447C624.205 922.84 623.615 923.234 623.025 923.823V923.43C623.025 922.84 623.026 922.447 622.632 922.251C622.436 922.054 622.043 921.857 621.453 921.857C620.863 921.857 620.666 921.857 620.273 922.251C620.077 922.644 619.88 923.037 619.88 923.627V932.67C619.88 933.26 619.88 933.85 620.273 934.243C620.666 934.636 621.06 934.833 621.453 934.833C621.846 934.833 622.239 934.833 622.632 934.243C622.829 933.85 623.025 933.457 623.025 932.67V928.345C623.025 926.969 623.026 925.986 623.615 925.2C624.009 924.413 624.598 924.217 625.581 924.217C626.564 924.217 626.564 924.217 626.761 924.61C626.957 924.806 627.154 925.2 627.154 925.789C627.154 926.183 627.154 926.772 627.154 927.755V932.867C627.154 933.457 627.154 934.047 627.547 934.44C627.744 934.833 628.137 935.03 628.727 935.03C629.317 935.03 629.71 935.03 629.906 934.44C630.3 934.047 630.3 933.653 630.3 932.867V928.542C630.3 927.166 630.3 926.183 630.693 925.593C630.889 925.2 631.283 924.806 631.676 924.61C632.069 924.413 632.462 924.217 632.855 924.217C633.249 924.217 633.839 924.217 634.035 924.61C634.232 924.806 634.428 925.2 634.428 925.593C634.428 925.986 634.428 926.576 634.428 927.166V932.474C634.428 933.064 634.428 933.653 634.821 934.047C635.215 934.44 635.608 934.636 636.001 934.636C636.394 934.636 636.984 934.636 637.181 934.047C637.574 933.653 637.574 933.26 637.574 932.474V926.183C637.574 925.003 637.574 924.02 637.181 923.43C636.788 922.84 636.394 922.251 635.804 921.857L636.198 922.644Z" fill="white"/>
<path d="M482.653 929.918C482.653 930.311 483.046 930.901 483.243 931.294C483.046 930.901 482.85 930.311 482.653 929.918Z" fill="white"/>
<path d="M492.876 914.583V913.993C493.269 913.993 493.663 913.403 493.663 912.814C493.663 912.224 493.073 911.438 492.286 911.438C491.5 911.438 490.91 912.027 490.91 912.814C490.91 913.6 491.303 913.993 491.893 913.993V914.583C490.124 914.78 488.354 915.566 488.354 915.566V916.352C489.927 915.959 490.91 915.763 491.893 915.566C492.876 915.566 493.466 915.566 494.056 915.566C494.646 915.566 495.039 915.566 495.629 915.566V914.583C495.629 914.583 494.253 914.19 492.483 914.386L492.876 914.583Z" fill="white"/>
<path d="M482.653 919.498C482.653 919.498 481.67 920.481 480.884 922.054C480.687 921.857 480.294 921.661 479.901 921.661C479.704 921.661 479.507 921.661 479.311 921.661C479.311 921.661 479.311 921.267 479.311 921.071C479.311 920.678 478.918 920.284 478.524 920.284C478.131 920.284 477.738 920.678 477.738 921.071C477.738 921.464 478.131 921.857 478.524 921.857C478.918 921.857 478.524 921.857 478.721 921.857C478.918 922.054 479.311 922.25 479.704 922.25C479.901 922.25 480.097 922.25 480.294 922.25C480.294 922.25 480.294 922.644 480.49 922.84C479.901 924.216 480.097 926.182 480.097 926.182H481.473C481.473 925.593 481.473 924.413 481.867 923.43C482.456 921.661 483.243 920.481 483.439 920.481H483.046C483.046 920.284 482.456 919.695 482.456 919.695L482.653 919.498Z" fill="white"/>
<path d="M505.852 916.746C505.458 916.746 505.065 917.139 505.065 917.532C505.065 917.925 505.065 917.532 505.065 917.729C504.869 917.925 504.672 918.319 504.672 918.712C504.672 918.908 504.672 919.105 504.672 919.302C504.672 919.302 504.476 919.302 504.279 919.302C503.296 917.925 502.116 917.139 502.116 917.139L501.133 918.122C501.92 918.712 502.51 919.498 503.296 920.481C503.689 921.268 504.279 922.054 504.672 923.037L505.852 922.447C505.852 922.447 505.262 921.071 504.476 919.695C504.476 919.695 504.672 919.695 504.869 919.498C505.065 919.302 505.262 918.908 505.262 918.515C505.262 918.319 505.262 918.122 505.262 917.925C505.262 917.925 505.655 917.925 505.852 917.925C506.245 917.925 506.638 917.532 506.638 917.139C506.638 916.746 506.245 916.353 505.852 916.353V916.746Z" fill="white"/>
<path d="M502.51 927.952C500.74 928.738 497.988 929.918 494.252 930.507C492.876 930.704 491.303 930.704 490.124 930.704C488.944 930.704 486.978 930.704 485.799 930.507C484.422 930.507 483.439 930.114 482.85 929.918C482.85 930.311 483.243 930.901 483.439 931.294C483.833 932.08 484.226 932.67 484.816 933.26C486.585 935.226 488.354 935.422 488.354 935.422C488.354 935.422 489.927 936.012 492.483 936.012C495.039 936.012 497.201 935.619 499.364 934.636C500.937 933.85 502.51 932.474 503.296 931.294C503.886 930.311 504.279 929.524 504.672 928.541C504.672 927.952 504.869 927.165 504.672 926.379C504.279 926.772 503.493 927.165 502.313 927.755L502.51 927.952Z" fill="white"/>
<path d="M496.022 916.549C495.432 916.549 495.039 916.549 494.449 916.549C493.859 916.549 493.269 916.549 492.286 916.549C491.303 916.549 490.32 916.942 489.141 917.335C487.568 917.925 485.995 918.711 484.816 919.891C484.816 920.088 484.226 920.481 483.833 920.874C483.833 920.874 483.046 922.054 482.456 923.626C482.063 924.806 482.063 926.575 482.063 926.575C482.063 926.969 482.063 927.362 482.063 927.755C482.063 927.952 482.063 928.345 482.063 928.541C482.85 928.738 487.961 929.918 493.859 929.131C497.398 928.541 500.15 927.558 501.92 926.772C503.296 926.182 504.279 925.592 504.476 925.199C504.082 924.02 503.099 922.054 502.313 920.677C499.757 917.139 497.201 916.156 495.825 915.959L496.022 916.549ZM488.944 926.772C486.978 926.772 485.405 925.199 485.405 923.233C485.405 921.267 486.978 919.694 488.944 919.694C490.91 919.694 492.483 921.267 492.483 923.233C492.483 925.199 490.91 926.772 488.944 926.772ZM498.971 924.216C497.791 924.216 496.808 923.233 496.808 922.054C496.808 920.874 497.791 919.891 498.971 919.891C500.15 919.891 501.133 920.874 501.133 922.054C501.133 923.233 500.15 924.216 498.971 924.216Z" fill="white"/>
</svg>
